<svg width="401" height="262" viewBox="0 0 401 262" fill="none" xmlns="http://www.w3.org/2000/svg">
<rect x="0.998047" width="399.977" height="261.77" fill="#ECEC3E"/>
<path d="M142 104C117.5 98.5 90.5 94 66 78C41.5 62 30.7441 0.458008 30.7441 0.458008H400.059V251.5C400.059 251.5 391 251 381.5 247.5C372 244 363 214.5 354.295 206.853C345.59 199.207 309.5 173.35 286.565 160.632C263.629 147.914 236 131.5 200.986 119.444C165.972 107.388 166.5 109.5 142 104Z" fill="#EB4921"/>
<path d="M0.99804 2.55521C1.16499 6.94257 2.38926 18.0863 9.69319 34.781C19.3036 56.7476 20.1354 68.6014 27 80.5C33.8646 92.3986 43.55 133.458 65.525 151.479C87.5 169.5 106.265 174.366 131.883 181.683C157.5 189 173.396 192.071 198.698 196.785C224 201.5 262.5 210.5 287 218.5C311.5 226.5 361.5 253 368 255.5C374.5 258 400.517 255.5 400.517 255.5V261.77H0.99804V2.55521C0.945321 1.16973 0.99804 0.458008 0.99804 0.458008V2.55521Z" fill="#00C877"/>
</svg>
