<svg width="401" height="262" viewBox="0 0 401 262" fill="none" xmlns="http://www.w3.org/2000/svg">
<rect x="0.998047" width="399.977" height="261.77" fill="#ECEC3E"/>
<path d="M132.798 100.223C117.696 93.8164 79.2539 91.9859 65.0671 79.6296C50.8803 67.2733 30.7441 0.458008 30.7441 0.458008H400.059V253.075L354.295 206.853C354.295 206.853 298.921 162.462 286.565 160.632C274.208 158.801 221.122 121.221 200.986 119.444L132.798 100.223Z" fill="#EB4921"/>
<path d="M0.998041 2.55521C1.16499 6.94257 2.38926 18.0863 9.69319 34.781C19.3036 56.7476 25.7104 64.9852 32.575 76.8838C39.4396 88.7824 65.525 151.479 65.525 151.479C78.7965 161.089 127.505 181.37 131.883 181.683C144.697 182.598 188.172 196.328 198.698 196.785C209.224 197.243 265.513 218.294 286.107 218.294C306.701 218.294 367.567 243.007 367.567 243.007L400.517 256.736V261.77H0.998041V2.55521C0.945321 1.16973 0.998041 0.458008 0.998041 0.458008V2.55521Z" fill="#00C877"/>
</svg>
