<svg width="401" height="262" viewBox="0 0 401 262" fill="none" xmlns="http://www.w3.org/2000/svg">
<rect width="399.977" height="261.77" transform="matrix(1 0 0 -1 0.498047 261.77)" fill="#ECEC3E"/>
<path d="M141.5 157.77C117 163.27 90 167.77 65.5 183.77C41 199.77 30.2441 261.312 30.2441 261.312H399.559V8.69463L353.795 54.9162C353.795 54.9162 309 88.4199 286.065 101.138C263.129 113.856 235.5 130.27 200.486 142.325C165.472 154.381 166 152.27 141.5 157.77Z" fill="#EB4921"/>
<path d="M0.49804 259.214C0.664987 254.827 1.88926 243.683 9.19319 226.989C18.8036 205.022 19.6354 193.168 26.5 181.27C33.3646 169.371 43.05 128.312 65.025 110.291C87 92.2695 105.765 87.4032 131.383 80.0864C157 72.7695 172.896 69.699 198.198 64.9843C223.5 60.2695 262 51.2695 286.5 43.2695C311 35.2695 367.067 18.7627 367.067 18.7627L400.017 5.03351V-0.000518799H0.49804V259.214C0.445321 260.6 0.49804 261.312 0.49804 261.312V259.214Z" fill="#00C877"/>
</svg>
