<svg width="400" height="262" viewBox="0 0 400 262" fill="none" xmlns="http://www.w3.org/2000/svg">
<rect width="399.543" height="261.486" transform="matrix(1 0 0 -1 0.457031 261.485)" fill="#ECEC3E"/>
<path d="M64.9143 120.228C39.8286 134.971 39.3143 166.4 33.8286 182.4C28.3429 198.4 0 261.028 0 261.028H399.086V8.68546C399.086 8.68546 365.757 37.5998 334.629 47.5426C303.5 57.4854 220.043 74.5998 199.771 79.5426C199.771 79.5426 90 105.485 64.9143 120.228Z" fill="#EB4921"/>
<path d="M0.456999 258.933C0.623765 254.551 1.84671 243.419 9.14271 226.743C18.7427 204.8 24.9136 127.971 32.4568 104.228C40 80.4854 68 56.4854 68 56.4854C81.2571 46.8853 108.142 29.2569 132.571 25.5997C157 21.9426 189.257 22.3997 199.771 21.9426C210.285 21.4855 267.428 18.7426 288 18.7426C308.571 18.7426 370.285 12.7997 370.285 12.7997L399.543 5.02832V-0.000244141H0.456999V258.933C0.404337 260.317 0.456999 261.028 0.456999 261.028V258.933Z" fill="#00C877"/>
</svg>
