<svg width="401" height="262" viewBox="0 0 401 262" fill="none" xmlns="http://www.w3.org/2000/svg">
<rect x="0.957031" width="399.543" height="261.486" fill="#ECEC3E"/>
<path d="M65.4143 141.257C50.3286 134.857 39.8143 95.0856 34.3286 79.0856C28.8429 63.0856 0.5 0.457031 0.5 0.457031H399.586V252.8L335.129 213.943C335.129 213.943 216.271 187.886 200.271 181.943C184.271 176 149.986 166.4 131.243 158.171L65.4143 141.257Z" fill="#EB4921"/>
<path d="M0.956999 2.55196C1.12377 6.93456 2.34671 18.0662 9.64271 34.7427C19.2427 56.6856 26.0997 145.371 32.9568 157.257C39.8139 169.143 64.4997 202.971 64.4997 202.971C77.7568 212.571 121.643 235.886 133.071 235.886C144.5 235.886 189.757 239.086 200.271 239.543C210.785 240 267.928 242.743 288.5 242.743C309.071 242.743 370.785 248.686 370.785 248.686L400.043 256.457V261.486H0.956999V2.55196C0.904337 1.16798 0.956999 0.457031 0.956999 0.457031V2.55196Z" fill="#00C877"/>
</svg>
