<svg width="400" height="262" viewBox="0 0 400 262" fill="none" xmlns="http://www.w3.org/2000/svg">
<rect width="400" height="261.785" fill="#ECEC3E"/>
<path d="M63.6156 157.895C58.5812 156.522 37.5286 122.655 30.6636 118.536C23.7986 114.417 0 0.458008 0 0.458008H399.085L400 256.751H382.609C382.609 256.751 320.824 235.698 296.11 229.291C271.396 222.884 214.188 198.17 198.627 196.797C183.066 195.424 130.892 180.778 130.892 180.778C130.892 180.778 68.6499 159.268 63.6156 157.895Z" fill="#EB4921"/>
<path d="M0 0.458008C0 0.458008 24.714 190.847 29.7483 197.254C34.7826 203.662 51.7162 214.188 63.6156 219.222C75.5149 224.257 119.908 232.952 129.519 232.952C139.13 232.952 191.762 235.838 199.085 236.156C206.407 236.474 271.854 248.971 286.041 250.801C300.229 252.632 380.32 259.497 380.32 259.497H399.542V261.785H198.627H0V0.458008Z" fill="#00C877"/>
</svg>
