<svg width="400" height="262" viewBox="0 0 400 262" fill="none" xmlns="http://www.w3.org/2000/svg">
<rect width="400" height="261.785" transform="matrix(1 0 0 -1 0 261.785)" fill="#ECEC3E"/>
<path d="M399.085 261.329L400 12.7852C400 12.7852 387.5 10.7852 380.5 12.7852C373.5 14.7852 315.279 61.1932 297.483 65.904C266.362 74.142 189.474 98.8559 158.352 108.467C127.231 118.078 110.755 129.062 87.8718 147.369C64.9886 165.675 44.5919 195.866 40.7323 202.746L0 261.329H399.085Z" fill="#EB4921"/>
<path d="M0 261.327C0 261.327 29.7483 198.169 38.9016 176.659C48.0549 155.149 61.7849 133.181 73.2265 118.535C84.6682 103.89 106.178 82.3798 135.011 68.1921C163.844 54.0045 173.913 52.6315 205.492 46.6818C237.071 40.7322 266.819 36.6132 290.16 29.7482C313.501 22.8832 380.32 5.03424 380.32 5.03424H399.542V-9.15527e-05H0V261.327Z" fill="#00C877"/>
</svg>
