<svg width="400" height="262" viewBox="0 0 400 262" fill="none" xmlns="http://www.w3.org/2000/svg">
<rect width="400" height="261.785" fill="#ECEC3E"/>
<path d="M399.085 0.456055L400 249C400 249 387.5 251 380.5 249C373.5 247 315.279 200.592 297.483 195.881C266.362 187.643 189.474 162.929 158.352 153.318C127.231 143.707 110.755 132.723 87.8718 114.417C64.9886 96.11 44.5919 65.9193 40.7323 59.0391L0 0.456055H399.085Z" fill="#EB4921"/>
<path d="M0 0.458008C0 0.458008 29.7483 63.6159 38.9016 85.1262C48.0549 106.637 61.7849 128.604 73.2265 143.25C84.6682 157.895 106.178 179.405 135.011 193.593C163.844 207.781 173.913 209.154 205.492 215.103C237.071 221.053 266.819 225.172 290.16 232.037C313.501 238.902 380.32 256.751 380.32 256.751H399.542V261.785H0V0.458008Z" fill="#00C877"/>
</svg>
