<svg width="400" height="286" viewBox="0 0 400 286" fill="none" xmlns="http://www.w3.org/2000/svg">
<rect width="400" height="286" transform="matrix(1 0 0 -1 0 286)" fill="#ECEC3E"/>
<path d="M399.085 285.502L400 20.5021C400 20.5021 328.604 63 297.483 72C266.362 81 189.474 108 158.352 118.5C127.231 129 110.755 141 87.8718 161C64.9886 181 44.5919 213.983 40.7323 221.5L0 285.502H399.085Z" fill="#EB4921"/>
<path d="M0 285.5C0 285.5 29.7483 216.5 38.9016 193C48.0549 169.5 61.7849 145.5 73.2265 129.5C84.6682 113.5 106.178 90 135.011 74.5C163.844 59 173.913 57.5 205.492 51C237.071 44.5 266.819 40 290.16 32.5C313.501 25 380.32 5.5 380.32 5.5H399.542V0H0V285.5Z" fill="#00C877"/>
</svg>
