<svg width="437" height="286" viewBox="0 0 437 286" fill="none" xmlns="http://www.w3.org/2000/svg">
<rect width="437" height="286" transform="matrix(1 0 0 -1 0 286)" fill="#ECEC3E"/>
<path d="M436 285.502L437 20.5021C437 20.5021 359 63 325 72C291 81 207 108 173 118.5C139 129 121 141 96 161C71 181 48.7167 213.983 44.5 221.5L0 285.502H436Z" fill="#EB4921"/>
<path d="M0 285.5C0 285.5 32.5 216.5 42.5 193C52.5 169.5 67.5 145.5 80 129.5C92.5 113.5 116 90 147.5 74.5C179 59 190 57.5 224.5 51C259 44.5 291.5 40 317 32.5C342.5 25 415.5 5.5 415.5 5.5H436.5V0H0V285.5Z" fill="#00C877"/>
</svg>
