<svg width="400" height="262" viewBox="0 0 400 262" fill="none" xmlns="http://www.w3.org/2000/svg">
<rect width="400" height="261.785" transform="matrix(1 0 0 -1 0 262)" fill="#ECEC3E"/>
<path d="M45.3089 112.801C22.8 134.94 5.94966 165.89 4.11899 182.366C2.28833 198.842 0 261.542 0 261.542H399.085V18.9791H384.439C384.439 18.9791 310.298 31.336 297.94 33.1667C285.583 34.9974 245.309 39.051 205.492 50.1004C165.675 61.1497 166.59 61.542 144.165 67.9493C121.739 74.3566 75.5328 83.0734 45.3089 112.801Z" fill="#EB4921"/>
<path d="M0 261.542C0 261.542 3.20434 165.89 5.03466 143.464C6.86499 121.039 11.8993 97.2399 41.1899 76.1873C70.4805 55.1347 104.348 45.066 130.435 34.9974C156.522 24.9287 183.066 19.7352 200.458 18.979C217.849 18.2229 270.023 10.7411 290.618 10.7411C311.213 10.7411 380.32 5.24908 380.32 5.24908H399.542V0.214752H0V261.542Z" fill="#00C877"/>
</svg>
