<svg width="437" height="286" viewBox="0 0 437 286" fill="none" xmlns="http://www.w3.org/2000/svg">
<rect width="437" height="286" transform="matrix(1 0 0 -1 0 286)" fill="#ECEC3E"/>
<path d="M49.5 123C24.909 147.187 6.5 181 4.5 199C2.5 217 0 285.5 0 285.5H436V20.5H420C420 20.5 339 34 325.5 36C312 38 268 42.4286 224.5 54.5C181 66.5714 182 67 157.5 74C133 81 82.5195 90.523 49.5 123Z" fill="#EB4921"/>
<path d="M0 285.5C0 285.5 3.50074 181 5.50037 156.5C7.5 132 13 106 45 83C77 60 114 49 142.5 38C171 27 200 21.3261 219 20.5C238 19.6739 295 11.5 317.5 11.5C340 11.5 415.5 5.5 415.5 5.5H436.5V0H0V285.5Z" fill="#00C877"/>
</svg>
