<svg width="400" height="262" viewBox="0 0 400 262" fill="none" xmlns="http://www.w3.org/2000/svg">
<rect width="400" height="261.785" fill="#ECEC3E"/>
<path d="M45.3089 149.199C22.8 127.06 5.94966 96.1102 4.11899 79.6342C2.28833 63.1582 0 0.458008 0 0.458008H399.085V243.021H384.439C384.439 243.021 310.298 230.664 297.94 228.833C285.583 227.003 245.309 222.949 205.492 211.9C165.675 200.85 166.59 200.458 144.165 194.051C121.739 187.643 75.5328 178.927 45.3089 149.199Z" fill="#EB4921"/>
<path d="M0 0.458008C0 0.458008 3.20434 96.1102 5.03466 118.536C6.86499 140.961 11.8993 164.76 41.1899 185.813C70.4805 206.865 104.348 216.934 130.435 227.003C156.522 237.071 183.066 242.265 200.458 243.021C217.849 243.777 270.023 251.259 290.618 251.259C311.213 251.259 380.32 256.751 380.32 256.751H399.542V261.785H0V0.458008Z" fill="#00C877"/>
</svg>
