<svg width="437" height="286" viewBox="0 0 437 286" fill="none" xmlns="http://www.w3.org/2000/svg">
<rect width="437" height="286" transform="matrix(1 0 0 -1 0 286)" fill="#ECEC3E"/>
<path d="M33.5 71C24.5 80 18 97 13.5 114C9 131 0 285.5 0 285.5H436V20.5H420H322.5C290 20.5 235 26 218 27.5C201 29 143 41.5 143 41.5C143 41.5 42.5 62 33.5 71Z" fill="#EB4921"/>
<path d="M0 285.5C0 285.5 0.5 84 8 70.5C15.5 57 17.5 45.5 34.5 37.5C51.5 29.5 129.5 19.5 143.5 18.5C157.5 17.5 205.5 13 217 12.5C228.5 12 293 5.5 315.5 5.5H415.5H436.5V0H0V285.5Z" fill="#00C877"/>
</svg>
