<svg width="21" height="20" viewBox="0 0 21 20" fill="none" xmlns="http://www.w3.org/2000/svg">
<path d="M6.21429 10.7143H4.07143C2.10714 10.7143 0.5 12.3214 0.5 14.2857V16.4286C0.5 18.3929 2.10714 20 4.07143 20H6.21429C8.17857 20 9.78571 18.3929 9.78571 16.4286V14.2857C9.78571 12.3214 8.17857 10.7143 6.21429 10.7143ZM8.35714 16.4286C8.35714 17.6071 7.39286 18.5714 6.21429 18.5714H4.07143C2.89286 18.5714 1.92857 17.6071 1.92857 16.4286V14.2857C1.92857 13.1071 2.89286 12.1429 4.07143 12.1429H6.21429C7.39286 12.1429 8.35714 13.1071 8.35714 14.2857V16.4286Z" fill="#1961AB"/>
<path d="M6.21429 0H4.07143C2.10714 0 0.5 1.60714 0.5 3.57143V5.71429C0.5 7.67857 2.10714 9.28571 4.07143 9.28571H6.21429C8.17857 9.28571 9.78571 7.67857 9.78571 5.71429V3.57143C9.78571 1.60714 8.17857 0 6.21429 0ZM8.35714 5.71429C8.35714 6.89286 7.39286 7.85714 6.21429 7.85714H4.07143C2.89286 7.85714 1.92857 6.89286 1.92857 5.71429V3.57143C1.92857 2.39286 2.89286 1.42857 4.07143 1.42857H6.21429C7.39286 1.42857 8.35714 2.39286 8.35714 3.57143V5.71429Z" fill="#1961AB"/>
<path d="M16.9286 10.7143H14.7857C12.8214 10.7143 11.2143 12.3214 11.2143 14.2857V16.4286C11.2143 18.3929 12.8214 20 14.7857 20H16.9286C18.8929 20 20.5 18.3929 20.5 16.4286V14.2857C20.5 12.3214 18.8929 10.7143 16.9286 10.7143ZM19.0714 16.4286C19.0714 17.6071 18.1071 18.5714 16.9286 18.5714H14.7857C13.6071 18.5714 12.6429 17.6071 12.6429 16.4286V14.2857C12.6429 13.1071 13.6071 12.1429 14.7857 12.1429H16.9286C18.1071 12.1429 19.0714 13.1071 19.0714 14.2857V16.4286Z" fill="#1961AB"/>
<path d="M16.9286 0H14.7857C12.8214 0 11.2143 1.60714 11.2143 3.57143V5.71429C11.2143 7.67857 12.8214 9.28571 14.7857 9.28571H16.9286C18.8929 9.28571 20.5 7.67857 20.5 5.71429V3.57143C20.5 1.60714 18.8929 0 16.9286 0ZM19.0714 5.71429C19.0714 6.89286 18.1071 7.85714 16.9286 7.85714H14.7857C13.6071 7.85714 12.6429 6.89286 12.6429 5.71429V3.57143C12.6429 2.39286 13.6071 1.42857 14.7857 1.42857H16.9286C18.1071 1.42857 19.0714 2.39286 19.0714 3.57143V5.71429Z" fill="#1961AB"/>
</svg>
