<svg width="32" height="32" viewBox="0 0 32 32" fill="none" xmlns="http://www.w3.org/2000/svg">
<path d="M0.988933 16.5663C1.47304 16.8341 2.06033 16.8321 2.54047 16.5604V25.9774C2.49483 29.2507 5.10783 31.9446 8.38151 32H12.1909C12.6115 32 12.9528 31.6588 12.9528 31.2382V21.4779H19.0478V31.2382C19.0478 31.6588 19.389 32 19.8096 32H23.619C26.8927 31.9445 29.5058 29.2505 29.46 25.9774V16.5624C29.9441 16.8203 30.5255 16.8203 31.0116 16.5644C31.6306 16.2232 32.0116 15.5685 31.9996 14.8603V11.4462C32.0155 10.4225 31.5254 9.45641 30.6882 8.86725L19.0615 0.964101C17.2222 -0.321367 14.7779 -0.321367 12.9385 0.964101L1.31182 8.86725C0.474567 9.45646 -0.0155225 10.4225 0.000375242 11.4462V14.8623C-0.0115293 15.5705 0.369408 16.2251 0.988426 16.5664L0.988933 16.5663ZM23.6192 30.4768H20.5717V20.7165C20.5717 20.2959 20.2304 19.9547 19.8098 19.9547H12.191C11.7704 19.9547 11.4292 20.2959 11.4292 20.7165V30.4768H8.38166C5.94919 30.4233 4.01673 28.4097 4.06437 25.9776V15.5626L15.1136 8.05201C15.6453 7.67906 16.3556 7.67906 16.8873 8.05201L27.9365 15.5606V25.9776C27.9842 28.4097 26.0516 30.4232 23.6192 30.4768ZM1.52479 11.4462C1.51288 10.9264 1.75295 10.4364 2.16959 10.1269L13.7943 2.22175C15.1196 1.29929 16.8814 1.29929 18.2068 2.22175L29.8315 10.1269C30.2481 10.4364 30.4882 10.9264 30.4763 11.4462V14.8603C30.4882 15.0031 30.4187 15.14 30.2997 15.2174C30.2441 15.2511 30.1727 15.2451 30.1231 15.2035L17.7467 6.79248C16.6952 6.07037 15.3063 6.07037 14.2548 6.79248L1.87839 15.2055C1.82879 15.2472 1.75736 15.2531 1.7018 15.2194C1.58276 15.142 1.51332 15.0051 1.52522 14.8623L1.52479 11.4462Z" fill="black"/>
</svg>
