<svg width="400" height="262" viewBox="0 0 400 262" fill="none" xmlns="http://www.w3.org/2000/svg">
<rect width="400" height="261.785" transform="matrix(1 0 0 -1 0 261.785)" fill="#ECEC3E"/>
<path d="M132.265 161.099C108.009 167.048 84.6682 170.71 63.6156 183.067C42.5629 195.424 0 261.785 0 261.785H400V67.2771C400 67.2771 381.236 73.2268 365.675 79.1765C350.114 85.1261 319.451 97.4831 288.787 108.467C258.124 119.451 232.037 133.181 200.915 141.877C169.794 150.572 156.522 155.149 132.265 161.099Z" fill="#EB4921"/>
<path d="M0 261.327C0 261.327 3.66133 207.323 5.94966 182.609C8.23799 157.895 64.5309 129.519 64.5309 129.519C64.5309 129.519 97.0252 113.043 131.808 102.975C166.59 92.9061 188.101 90.1601 199.085 84.2104C210.069 78.2608 261.785 65.4461 280.549 59.0388C299.314 52.6315 359.268 31.1212 374.828 26.5445C390.389 21.9679 399.542 19.2219 399.542 19.2219V-9.15527e-05H0V261.327Z" fill="#00C877"/>
</svg>
