<svg width="437" height="286" viewBox="0 0 437 286" fill="none" xmlns="http://www.w3.org/2000/svg">
<rect width="437" height="286" fill="#ECEC3E"/>
<path d="M144.5 110C118 103.5 92.5 99.5 69.5 86C46.5 72.5 0 0 0 0H437V212.5C437 212.5 416.5 206 399.5 199.5C382.5 193 349 179.5 315.5 167.5C282 155.5 253.5 140.5 219.5 131C185.5 121.5 171 116.5 144.5 110Z" fill="#EB4921"/>
<path d="M0 0.5C0 0.5 4 59.5 6.5 86.5C9 113.5 70.5 144.5 70.5 144.5C70.5 144.5 106 162.5 144 173.5C182 184.5 205.5 187.5 217.5 194C229.5 200.5 286 214.5 306.5 221.5C327 228.5 392.5 252 409.5 257C426.5 262 436.5 265 436.5 265V286H0V0.5Z" fill="#00C877"/>
</svg>
