<svg width="400" height="262" viewBox="0 0 400 262" fill="none" xmlns="http://www.w3.org/2000/svg">
<rect width="400" height="261.785" transform="matrix(1 0 0 -1 0 261.785)" fill="#ECEC3E"/>
<path d="M130.892 120.366C110.755 126.774 79.1762 136.385 64.5309 142.792C49.8856 149.199 12.8146 166.591 7.78032 183.524C2.746 200.458 0 261.785 0 261.785H400V18.3069C400 18.3069 368.421 23.3413 356.522 27.0026C344.623 30.6639 308.009 39.8172 295.652 43.9362C283.295 48.0552 215.561 76.8882 200.915 82.3802C186.27 87.8721 151.03 113.959 130.892 120.366Z" fill="#EB4921"/>
<path d="M0 261.327C0 261.327 1.373 162.929 4.57666 141.876C7.78032 120.824 53.0892 77.3455 66.8192 71.8535C80.5492 66.3615 110.297 53.5469 123.112 49.4279C135.927 45.3089 189.016 36.1556 200.915 32.0366C212.815 27.9176 279.634 18.3066 293.364 15.103C307.094 11.8993 380.32 5.0343 380.32 5.0343H399.542V-3.05176e-05H0V261.327Z" fill="#00C877"/>
</svg>
