<svg width="400" height="262" viewBox="0 0 400 262" fill="none" xmlns="http://www.w3.org/2000/svg">
<rect width="400" height="261.785" transform="matrix(1 0 0 -1 0 261.785)" fill="#ECEC3E"/>
<path d="M32.9519 85.1261C22.8833 89.7028 22.8833 90.6181 12.3853 104.213C1.88735 117.809 0 261.785 0 261.785H400V11.2852H385.321L304.587 27.0354L200 43.4785L131.808 58.1238C131.808 58.1238 82.8375 70.0231 64.5309 75.5151C46.2243 81.0071 43.0206 80.5495 32.9519 85.1261Z" fill="#EB4921"/>
<path d="M0 261.327C0 261.327 3.20366 75.9725 7.32266 63.6155C11.4416 51.2585 14.1876 53.5468 33.4096 47.1395C52.6316 40.7322 56.7505 37.5285 64.5309 36.1555C72.3112 34.7825 111.67 31.5789 132.265 28.8329C152.86 26.0869 200 19.6795 200 19.6795C200 19.6795 279.634 7.32256 287.872 7.78023C296.11 8.2379 380.32 5.03424 380.32 5.03424H399.542V-9.15527e-05H0V261.327Z" fill="#00C877"/>
</svg>
