<svg width="437" height="286" viewBox="0 0 437 286" fill="none" xmlns="http://www.w3.org/2000/svg">
<rect width="437" height="286" fill="#ECEC3E"/>
<path d="M36 193C25 188 25 187 13.531 172.147C2.06193 157.294 0 0 0 0H437V266H420.963L332.761 256.464L218.5 238.5L144 222.5C144 222.5 90.5 209.5 70.5 203.5C50.5 197.5 47 198 36 193Z" fill="#EB4921"/>
<path d="M0 0.5C0 0.5 3.5 203 8 216.5C12.5 230 15.5 227.5 36.5 234.5C57.5 241.5 62 245 70.5 246.5C79 248 122 251.5 144.5 254.5C167 257.5 218.5 264.5 218.5 264.5C218.5 264.5 305.5 278 314.5 277.5C323.5 277 415.5 280.5 415.5 280.5H436.5V286H0V0.5Z" fill="#00C877"/>
</svg>
