<svg width="30" height="26" viewBox="0 0 30 26" fill="none" xmlns="http://www.w3.org/2000/svg">
<path d="M11.5007 5.62881C11.5007 4.02205 10.3628 2.41595 5.90178 6.31748C-0.397037 11.8263 1.7026 24.2213 2.40247 24.91C3.10233 25.5986 10.8008 22.1555 11.5007 20.7783C12.2006 19.4011 10.8008 17.3352 12.2006 14.5808M18.4993 5.62879C18.4993 4.02203 19.6372 2.41593 24.0982 6.31746C30.397 11.8263 28.2974 24.2213 27.5975 24.9099C26.8977 25.5985 19.1992 22.1555 18.4993 20.7783C17.7994 19.401 19.1992 17.3352 17.7994 14.5807M21.9987 16.6468C21.9987 13.3949 19.8717 11.7738 18.2519 10.7191C14.9109 8.54378 15 4.4935 15 0.999945C15 4.4935 15.0891 8.54378 11.7481 10.7191C10.1283 11.7738 8.00142 13.3949 8.00142 16.6468" stroke="black" stroke-width="1.5" stroke-linecap="round" stroke-linejoin="round"/>
</svg>
