<svg width="437" height="155" viewBox="0 0 437 155" fill="none" xmlns="http://www.w3.org/2000/svg">
<rect width="437" height="155" fill="#ECEC3E"/>
<path d="M437 0V90C355.986 79.5685 219.055 61.5423 197.5 69.1416C175.945 76.7409 141.929 70.0922 120.777 41.7167L91 0H437Z" fill="#F0973E"/>
<path d="M437 3.8147e-06V48C361.607 40.5104 241.06 27.3865 221 32.8426C200.94 38.2987 165.685 35.531 146 15.1581L124 3.8147e-06H437Z" fill="#EB4921"/>
<path d="M437 149.173V155H218.625H0.25043L0 0H27.5C71.6495 92.0372 77 115.5 122.5 134.5C168 153.5 332.925 145.395 437 149.173Z" fill="#00C877"/>
</svg>
