<svg width="437" height="155" viewBox="0 0 437 155" fill="none" xmlns="http://www.w3.org/2000/svg">
<rect width="437" height="155" transform="matrix(1 0 0 -1 0 155)" fill="#ECEC3E"/>
<path d="M437 155V65C355.986 75.4315 219.055 93.4577 197.5 85.8584C175.945 78.2591 141.929 84.9078 120.777 113.283L91 155H437Z" fill="#F0973E"/>
<path d="M437 155V107C361.607 114.49 241.06 127.613 221 122.157C200.94 116.701 165.685 119.469 146 139.842L124 155H437Z" fill="#EB4921"/>
<path d="M437 5.82707V0H218.625H0.25043L0 155H27.5C71.6495 62.9628 77 39.5 122.5 20.5C168 1.5 332.925 9.60458 437 5.82707Z" fill="#00C877"/>
</svg>
