<svg width="20" height="20" viewBox="0 0 20 20" fill="none" xmlns="http://www.w3.org/2000/svg">
<path d="M7.5 4C7.5 3 6.8 2 4.5 4.5C0.5 8 2 17 2.5 17.5C3 18 8.5 15.5 7.5 14.5C6.5 13.5 8.5 12 7.5 10M12.5 4C12.5 3 13.2 2 15.5 4.5C19.5 8 18 17 17.5 17.5C17 18 11.5 15.5 12.5 14.5C13.5 13.5 11.5 12 12.5 10M15 11.5C15 9.5 13.5 8.5 12.5 8C10.5 7 10.5 4 10 1C10 4 10 7 7.5 8C6.5 8.5 5 9.5 5 11.5" stroke="#1961AB" stroke-width="1.5" stroke-linecap="round" stroke-linejoin="round"/>
<circle cx="6" cy="12" r="1.5" fill="#FF6B35" opacity="0.8"/>
<circle cx="14" cy="12" r="1.5" fill="#FF6B35" opacity="0.8"/>
<circle cx="10" cy="9" r="1" fill="#FF6B35" opacity="0.8"/>
</svg>
