<svg width="400" height="267" viewBox="0 0 400 267" fill="none" xmlns="http://www.w3.org/2000/svg">
<rect y="0.000976562" width="400" height="267" fill="#ECEC3E"/>
<path d="M64.1887 247.485C59.1492 246.087 41.337 243.753 34.4651 239.558C27.5931 235.363 7 0.000976562 7 0.000976562H400V261.001H384.423H295.546C265.767 261.001 214.914 260.535 199.338 259.137C183.761 257.738 131.992 257.272 131.992 257.272C131.992 257.272 69.2282 248.883 64.1887 247.485Z" fill="#EB4921"/>
<path d="M0 0.93457C0 0.93457 17.4112 246.033 29.7824 249.761C42.1535 253.488 54.0664 255.818 64.6048 257.682C75.1432 259.546 121.879 264.672 131.501 264.672C141.123 264.672 188.316 264.206 198.855 264.672C209.393 265.138 268.958 264.672 289.576 264.672H380.756H400V267.001H0V0.93457Z" fill="#00C877"/>
</svg>
