<svg width="400" height="286" viewBox="0 0 400 286" fill="none" xmlns="http://www.w3.org/2000/svg">
<rect width="400" height="286" transform="matrix(1 0 0 -1 0 286)" fill="#ECEC3E"/>
<path d="M399.085 285.502V76.5C399.085 76.5 244.394 71.5 217.849 71.5C191.305 71.5 169.794 72 144.165 74.5C118.536 77 98.8562 91 84.6686 103.5C69.1358 117.185 59.8227 153.5 52.5 169.5C41.516 185 28.1163 256.483 24.2567 264L20.1377 285.502H399.085Z" fill="#EB4921"/>
<path d="M0 285.5C0 285.5 41.1899 131.5 50.3432 108C59.4966 84.5 83.7529 65 94.2792 60C104.805 55 143.707 39 156.522 38C169.336 37 218.307 29.5 228.833 29C239.359 28.5 287.414 21.5 308.009 21.5C328.604 21.5 381.236 18 381.236 18H399.542V0H0V285.5Z" fill="#00C877"/>
</svg>
