<svg width="400" height="267" viewBox="0 0 400 267" fill="none" xmlns="http://www.w3.org/2000/svg">
<rect width="400" height="267" transform="matrix(1 0 0 -1 0 267.003)" fill="#ECEC3E"/>
<path d="M64.1887 19.519C59.1492 20.9172 41.337 23.2512 34.4651 27.4459C27.5931 31.6405 7 267.003 7 267.003H400V6.00293H384.423H295.546C265.767 6.00293 214.914 6.46899 199.338 7.86722C183.761 9.26544 131.992 9.73148 131.992 9.73148C131.992 9.73148 69.2282 18.1208 64.1887 19.519Z" fill="#EB4921"/>
<path d="M0 266.068C0 266.068 17.4112 20.97 29.7824 17.2422C42.1535 13.5145 54.0664 11.1847 64.6048 9.32083C75.1432 7.45697 121.879 2.33133 131.501 2.33133C141.123 2.33133 188.316 2.7973 198.855 2.33133C209.393 1.86536 268.958 2.33133 289.576 2.33133H380.756H400V0.00149536H0V266.068Z" fill="#00C877"/>
</svg>
