<svg width="400" height="286" viewBox="0 0 400 286" fill="none" xmlns="http://www.w3.org/2000/svg">
<rect width="400" height="286" transform="matrix(1 0 0 -1 0 286)" fill="#ECEC3E"/>
<path d="M400 286V36C400 36 251.153 64.5307 222.924 64.5307C194.696 64.5307 170.073 72.0465 144.372 74.5518C118.672 77.0571 98.9372 91.0867 84.7102 103.613C69.1342 117.327 59.7952 153.719 52.4522 169.753C41.4377 185.285 28.0008 256.92 24.1304 264.453L20 286H400Z" fill="#EB4921"/>
<path d="M0 285.5C0 285.5 41.1899 131.5 50.3432 108C59.4966 84.5 83.7529 65 94.2792 60C104.805 55 143.707 39 156.522 38C169.336 37 218.307 29.5 228.833 29C239.359 28.5 287.414 21.5 308.009 21.5C328.604 21.5 381.236 6.5 381.236 6.5H399.542V0H0V285.5Z" fill="#00C877"/>
</svg>
