<svg width="400" height="267" viewBox="0 0 400 267" fill="none" xmlns="http://www.w3.org/2000/svg">
<rect width="400" height="267" transform="matrix(1 0 0 -1 0 267)" fill="#ECEC3E"/>
<path d="M64.1887 19.5161C59.1492 20.9143 41.337 23.2483 34.4651 27.443C27.5931 31.6376 7 267 7 267H400V6H384.423H295.546C265.767 6 214.914 6.46606 199.338 7.86429C183.761 9.26251 131.992 9.72855 131.992 9.72855C131.992 9.72855 69.2282 18.1178 64.1887 19.5161Z" fill="#EB4921"/>
<path d="M0 266.066C0 266.066 17.4112 20.968 29.7824 17.2403C42.1535 13.5126 54.0664 11.1827 64.6048 9.31888C75.1432 7.45502 121.879 2.32938 131.501 2.32938C141.123 2.32938 188.316 2.79535 198.855 2.32938C209.393 1.8634 268.958 2.32938 289.576 2.32938H380.756H400V-0.000457764H0V266.066Z" fill="#00C877"/>
</svg>
