<svg width="400" height="262" viewBox="0 0 400 262" fill="none" xmlns="http://www.w3.org/2000/svg">
<rect width="400" height="261.785" transform="matrix(1 0 0 -1 0 261.785)" fill="#ECEC3E"/>
<path d="M41.1899 74.1418C26.0869 80.5491 18.8307 163.024 17 179.5C15.1693 195.976 17.0003 261.327 17.0003 261.327H399.085V8.69557H384.439C384.439 8.69557 313.501 15.5606 301.144 17.3912C288.787 19.2219 232.037 27.5137 211.899 29.2905C191.762 31.0674 160.641 36.6132 148.284 40.2745C143.01 41.8372 113.959 48.5125 100.229 51.7162C77.8038 56.9487 56.2928 67.7345 41.1899 74.1418Z" fill="#EB4921"/>
<path d="M0 261.327C0 261.327 3.20434 165.675 5.03466 143.249C6.86499 120.824 19.6796 54.9198 35.2403 47.5972L99.7712 25.6292C110.297 23.7985 140.245 16.3309 144.622 16.0182C157.437 15.1029 188.101 8.69556 198.627 8.2379C209.153 7.78023 268.192 5.03424 288.787 5.03424H380.32H399.542V-9.15527e-05H0V261.327Z" fill="#00C877"/>
</svg>
