<svg width="400" height="260" viewBox="0 0 400 260" fill="none" xmlns="http://www.w3.org/2000/svg">
<rect width="400" height="259.999" transform="matrix(1 0 0 -1 0 260)" fill="#ECEC3E"/>
<path d="M400 259.16V78.8387C329.5 78.8387 151.5 55.5 116 55.5C80.5 55.5 66.8188 134.193 62.6999 145.935C58.5809 157.678 43.9355 259.16 43.9355 259.16H400Z" fill="#EB4921"/>
<path d="M400 6.83259V0H200.115H0.22928L0 259.999H4.11899L11.6839 181.747C14.2418 143.621 29.0298 94.6293 41.4626 59.0995C50.1921 48.1258 58.3969 29.0952 59.3357 12.0741C60.2744 -4.94695 400 6.83259 400 6.83259Z" fill="#00C877"/>
</svg>
