<svg width="437" height="155" viewBox="0 0 437 155" fill="none" xmlns="http://www.w3.org/2000/svg">
<rect width="437" height="155" fill="#ECEC3E"/>
<path d="M437 6.32426V131C355.986 117.7 142.332 93.6902 120.777 103.379C99.2214 113.068 78.3022 106.649 57.1498 70.4704L19 0L437 6.32426Z" fill="#F0973E"/>
<path d="M437 0.5V73C361.607 65.5886 162.776 52.209 142.716 57.6082C122.656 63.0074 103.188 59.4301 83.503 39.2698L48 0.5H437Z" fill="#EB4921"/>
<path d="M437 150.927V155H218.625H0.250488L0 0H4.5L12.7647 46.6505C15.5591 69.3794 31.7151 98.5862 45.2979 119.767C54.8349 126.31 63.7986 137.655 64.8242 147.802C65.8498 157.949 437 150.927 437 150.927Z" fill="#00C877"/>
</svg>
