<svg width="437" height="155" viewBox="0 0 437 155" fill="none" xmlns="http://www.w3.org/2000/svg">
<rect width="437" height="155" transform="matrix(1 0 0 -1 0 155)" fill="#ECEC3E"/>
<path d="M437 148.676V24C355.986 37.3 142.332 61.3098 120.777 51.6209C99.2214 41.9319 78.3022 48.3515 57.1498 84.5296L19 155L437 148.676Z" fill="#F0973E"/>
<path d="M437 154.5V82C361.607 89.4114 162.776 102.791 142.716 97.3918C122.656 91.9926 103.188 95.5699 83.503 115.73L48 154.5H437Z" fill="#EB4921"/>
<path d="M437 4.07329V0H218.625H0.250488L0 155H4.5L12.7647 108.35C15.5591 85.6206 31.7151 56.4138 45.2979 35.2325C54.8349 28.6905 63.7986 17.3452 64.8242 7.19804C65.8498 -2.94916 437 4.07329 437 4.07329Z" fill="#00C877"/>
</svg>
