<svg width="400" height="262" viewBox="0 0 400 262" fill="none" xmlns="http://www.w3.org/2000/svg">
<rect width="399.977" height="261.77" transform="matrix(1 0 0 -1 0.0234375 261.77)" fill="#ECEC3E"/>
<path d="M141.025 157.77C116.525 163.27 89.5254 167.77 65.0254 183.77C40.5254 199.77 29.7695 261.312 29.7695 261.312H399.084V10.2695C399.084 10.2695 390.025 10.7695 380.525 14.2695C371.025 17.7695 362.025 47.2695 353.321 54.9162C344.616 62.5629 308.525 88.4199 285.59 101.138C262.654 113.856 235.025 130.27 200.011 142.325C164.997 154.381 165.525 152.27 141.025 157.77Z" fill="#EB4921"/>
<path d="M0.0234311 259.214C0.190378 254.827 1.41465 243.683 8.71858 226.989C18.329 205.022 19.1608 193.168 26.0254 181.27C32.89 169.371 42.5754 128.312 64.5504 110.291C86.5254 92.2695 105.291 87.4032 130.908 80.0864C156.525 72.7695 172.421 69.699 197.723 64.9843C223.025 60.2695 261.525 51.2695 286.025 43.2695C310.525 35.2695 360.525 8.76953 367.025 6.26953C373.525 3.76953 399.543 6.26953 399.543 6.26953V-0.000518799H0.0234311V259.214C-0.0292888 260.6 0.0234311 261.312 0.0234311 261.312V259.214Z" fill="#00C877"/>
</svg>
