<svg width="401" height="262" viewBox="0 0 401 262" fill="none" xmlns="http://www.w3.org/2000/svg">
<rect width="400" height="261.785" transform="matrix(1 0 0 -1 0.5 261.785)" fill="#ECEC3E"/>
<path d="M64.1156 103.89C38.2311 119.495 41.5 127.285 31.1636 143.249C20.8272 159.214 0.5 261.327 0.5 261.327H399.585L400.5 5.03424H383.109C383.109 5.03424 340.5 19.1678 296.61 32.4942C252.72 45.8205 199.127 64.9885 199.127 64.9885L131.392 81.0068C131.392 81.0068 90 88.2852 64.1156 103.89Z" fill="#EB4921"/>
<path d="M0.5 261.327C0.5 261.327 10.2539 89.0075 28.5 65.7852C46.7461 42.5628 50.3844 45.0075 64 40.2852C77.6156 35.5628 115.539 28.8329 130.019 28.8329C144.5 28.8329 188 24.4808 204 23.7852C220 23.0895 272.354 12.8145 286.541 10.9839C300.729 9.15323 380.82 2.28824 380.82 2.28824H400.042V-9.15527e-05H199.127H0.5V261.327Z" fill="#00C877"/>
</svg>
