<svg width="400" height="262" viewBox="0 0 400 262" fill="none" xmlns="http://www.w3.org/2000/svg">
<rect width="400" height="261.785" fill="#ECEC3E"/>
<path d="M63.6156 157.895C37.7311 142.29 41 134.5 30.6636 118.536C20.3272 102.572 0 0.458008 0 0.458008H399.085L400 256.751H382.609C382.609 256.751 340 242.617 296.11 229.291C252.22 215.965 198.627 196.797 198.627 196.797L130.892 180.778C130.892 180.778 89.5 173.5 63.6156 157.895Z" fill="#EB4921"/>
<path d="M0 0.458008C0 0.458008 9.75389 172.778 28 196C46.2461 219.222 49.8844 216.778 63.5 221.5C77.1156 226.222 115.039 232.952 129.519 232.952C144 232.952 187.5 237.304 203.5 238C219.5 238.696 271.854 248.971 286.041 250.801C300.229 252.632 380.32 259.497 380.32 259.497H399.542V261.785H198.627H0V0.458008Z" fill="#00C877"/>
</svg>
