<svg width="278" height="60" viewBox="0 0 278 60" fill="none" xmlns="http://www.w3.org/2000/svg">
<path d="M1 51C0.447715 51 0 51.4477 0 52C0 52.5523 0.447715 53 1 53V51ZM277.707 52.7071C278.098 52.3166 278.098 51.6834 277.707 51.2929L271.343 44.9289C270.953 44.5384 270.319 44.5384 269.929 44.9289C269.538 45.3195 269.538 45.9526 269.929 46.3431L275.586 52L269.929 57.6569C269.538 58.0474 269.538 58.6805 269.929 59.0711C270.319 59.4616 270.953 59.4616 271.343 59.0711L277.707 52.7071ZM1 52V53H277V52V51H1V52Z" fill="#1961AB"/>
<g clip-path="url(#clip0_1041_8112)">
<path d="M45.8707 29.2815C47.2298 29.5639 48.5841 30.6163 49.2661 31.8617C50.2683 33.6939 49.8371 35.9806 50.113 37.9362C50.3262 39.4491 50.9425 39.6042 51.7431 40.6228C52.4589 41.5349 52.6788 43.2975 51.2753 43.6128L47.3456 43.6307L47.2896 43.6725C46.598 46.7948 42.3673 46.7639 41.6863 43.6456L37.9022 43.6257C36.3695 43.5044 36.4466 41.6443 37.2067 40.6715C38.0189 39.6321 38.6536 39.464 38.8774 37.9272C39.1677 35.9359 38.7163 33.661 39.7667 31.796C40.4439 30.5934 41.804 29.552 43.1274 29.2795C43.1602 29.1153 43.0068 29.0666 42.9422 28.9492C42.4117 27.9804 42.6287 26.7729 43.6135 26.2338C45.153 25.3913 46.8507 26.9639 46.1958 28.6478C46.0993 28.8945 45.9131 29.0447 45.8697 29.2795L45.8707 29.2815ZM45.6247 27.9058C45.6247 27.2633 45.1193 26.742 44.4952 26.742C43.8711 26.742 43.3656 27.2633 43.3656 27.9058C43.3656 28.5484 43.8711 29.0696 44.4952 29.0696C45.1193 29.0696 45.6247 28.5484 45.6247 27.9058ZM49.9143 39.654C49.6972 39.2044 49.5294 38.7747 49.4484 38.2734C49.1031 36.1597 49.6664 33.4909 48.2764 31.6896C46.5469 29.4486 43.3666 29.189 41.2744 31.0689C39.1755 32.9548 39.9558 35.8036 39.5497 38.2743C39.4668 38.7757 39.2816 39.1974 39.0829 39.654H49.9143ZM38.4906 40.4089C38.0671 40.8148 37.6167 41.1838 37.4691 41.7885C37.3611 42.2322 37.3119 42.7753 37.8588 42.8767L51.2888 42.8349C51.7885 42.633 51.5512 41.7378 51.3592 41.3658C51.2686 41.1897 50.6696 40.4815 50.5143 40.4507C46.5035 40.4686 42.5023 40.3492 38.4906 40.4099V40.4089ZM46.544 43.6247H42.4522C42.9133 45.809 46.0684 45.82 46.544 43.6247Z" fill="#1961AB"/>
<path d="M49.9142 39.6539H39.0828C39.2824 39.1974 39.4676 38.7766 39.5496 38.2743C39.9557 35.8035 39.1754 32.9558 41.2743 31.0689C43.3665 29.1889 46.5458 29.4485 48.2763 31.6896C49.6663 33.4909 49.103 36.1596 49.4483 38.2733C49.5303 38.7746 49.6972 39.2044 49.9142 39.6539Z" fill="white"/>
<path d="M38.4907 40.4089C42.5034 40.3482 46.5045 40.4676 50.5143 40.4497C50.6696 40.4805 51.2686 41.1888 51.3593 41.3648C51.5513 41.7378 51.7895 42.633 51.2889 42.8339L37.8589 42.8757C37.3119 42.7743 37.3611 42.2312 37.4692 41.7875C37.6158 41.1838 38.0663 40.8138 38.4907 40.4079V40.4089Z" fill="white"/>
<path d="M46.544 43.6247C46.0684 45.82 42.9132 45.809 42.4521 43.6247H46.544Z" fill="white"/>
<path d="M39.8884 26.3631C40.2414 26.2815 40.4642 26.6117 40.2896 26.927C40.2443 27.0086 39.3636 27.5815 39.1852 27.7238C38.0566 28.625 37.1788 29.8086 36.5846 31.1475C36.1429 31.3673 35.9007 31.1117 36.0396 30.6352C36.3869 29.4495 38.0026 27.684 38.971 26.9569C39.1138 26.8505 39.7707 26.3899 39.8884 26.3621V26.3631Z" fill="#1961AB"/>
<path d="M48.8899 26.3631C49.0037 26.3372 49.0732 26.3501 49.1783 26.3919C49.3548 26.4625 49.8747 26.8425 50.0541 26.9778C50.9638 27.6641 51.8435 28.6429 52.4367 29.6326C52.6142 29.928 53.0531 30.667 52.9933 30.9913C52.946 31.2459 52.5823 31.2927 52.4126 31.1465C52.3296 31.0748 51.9361 30.1846 51.8116 29.9797C51.3062 29.1472 50.5895 28.3464 49.84 27.7447C49.6606 27.6004 48.7519 27.0046 48.7085 26.926C48.5995 26.7301 48.6545 26.4158 48.8899 26.3621V26.3631Z" fill="#1961AB"/>
<path d="M38.4915 31.6498C38.2127 31.8706 37.85 31.7204 37.8761 31.3414C37.8963 31.047 38.4539 30.2582 38.6516 30.0026C39.0596 29.4744 39.595 28.9353 40.1265 28.5454C40.3734 28.3643 40.8885 27.9227 41.1798 28.1356C41.3091 28.2698 41.3438 28.4897 41.2435 28.6548C41.1798 28.7592 40.3126 29.3103 40.1188 29.4804C39.459 30.0603 38.8725 30.8481 38.4915 31.6488V31.6498Z" fill="#1961AB"/>
<path d="M50.5047 31.6498C49.9192 30.3657 48.8996 29.4038 47.7527 28.6548C47.555 27.6014 48.4598 28.243 48.8697 28.5454C49.3954 28.9323 49.9414 29.4804 50.3456 30.0016C50.5423 30.2552 51.0999 31.049 51.1201 31.3404C51.1462 31.7194 50.7835 31.8696 50.5047 31.6488V31.6498Z" fill="#1961AB"/>
<path d="M44.4953 29.0706C45.1191 29.0706 45.6248 28.5491 45.6248 27.9058C45.6248 27.2625 45.1191 26.741 44.4953 26.741C43.8714 26.741 43.3657 27.2625 43.3657 27.9058C43.3657 28.5491 43.8714 29.0706 44.4953 29.0706Z" fill="white"/>
</g>
<g clip-path="url(#clip1_1041_8112)">
<path d="M139.871 29.2815C141.23 29.5639 142.584 30.6163 143.266 31.8617C144.268 33.6939 143.837 35.9806 144.113 37.9362C144.326 39.4491 144.943 39.6042 145.743 40.6228C146.459 41.5349 146.679 43.2975 145.275 43.6128L141.346 43.6307L141.29 43.6725C140.598 46.7948 136.367 46.7639 135.686 43.6456L131.902 43.6257C130.369 43.5044 130.447 41.6443 131.207 40.6715C132.019 39.6321 132.654 39.464 132.877 37.9272C133.168 35.9359 132.716 33.661 133.767 31.796C134.444 30.5934 135.804 29.552 137.127 29.2795C137.16 29.1153 137.007 29.0666 136.942 28.9492C136.412 27.9804 136.629 26.7729 137.614 26.2338C139.153 25.3913 140.851 26.9639 140.196 28.6478C140.099 28.8945 139.913 29.0447 139.87 29.2795L139.871 29.2815ZM139.625 27.9058C139.625 27.2633 139.119 26.742 138.495 26.742C137.871 26.742 137.366 27.2633 137.366 27.9058C137.366 28.5484 137.871 29.0696 138.495 29.0696C139.119 29.0696 139.625 28.5484 139.625 27.9058ZM143.914 39.654C143.697 39.2044 143.529 38.7747 143.448 38.2734C143.103 36.1597 143.666 33.4909 142.276 31.6896C140.547 29.4486 137.367 29.189 135.274 31.0689C133.175 32.9548 133.956 35.8036 133.55 38.2743C133.467 38.7757 133.282 39.1974 133.083 39.654H143.914ZM132.491 40.4089C132.067 40.8148 131.617 41.1838 131.469 41.7885C131.361 42.2322 131.312 42.7753 131.859 42.8767L145.289 42.8349C145.788 42.633 145.551 41.7378 145.359 41.3658C145.269 41.1897 144.67 40.4815 144.514 40.4507C140.503 40.4686 136.502 40.3492 132.491 40.4099V40.4089ZM140.544 43.6247H136.452C136.913 45.809 140.068 45.82 140.544 43.6247Z" fill="#1961AB"/>
<path d="M143.914 39.6539H133.083C133.282 39.1974 133.468 38.7766 133.55 38.2743C133.956 35.8035 133.175 32.9558 135.274 31.0689C137.367 29.1889 140.546 29.4485 142.276 31.6896C143.666 33.4909 143.103 36.1596 143.448 38.2733C143.53 38.7746 143.697 39.2044 143.914 39.6539Z" fill="white"/>
<path d="M132.491 40.4089C136.503 40.3482 140.505 40.4676 144.514 40.4497C144.67 40.4805 145.269 41.1888 145.359 41.3648C145.551 41.7378 145.79 42.633 145.289 42.8339L131.859 42.8757C131.312 42.7743 131.361 42.2312 131.469 41.7875C131.616 41.1838 132.066 40.8138 132.491 40.4079V40.4089Z" fill="white"/>
<path d="M140.544 43.6247C140.068 45.82 136.913 45.809 136.452 43.6247H140.544Z" fill="white"/>
<path d="M133.888 26.3631C134.241 26.2815 134.464 26.6117 134.29 26.927C134.244 27.0086 133.364 27.5815 133.185 27.7238C132.057 28.625 131.179 29.8086 130.585 31.1475C130.143 31.3673 129.901 31.1117 130.04 30.6352C130.387 29.4495 132.003 27.684 132.971 26.9569C133.114 26.8505 133.771 26.3899 133.888 26.3621V26.3631Z" fill="#1961AB"/>
<path d="M142.89 26.3631C143.004 26.3372 143.073 26.3501 143.178 26.3919C143.355 26.4625 143.875 26.8425 144.054 26.9778C144.964 27.6641 145.843 28.6429 146.437 29.6326C146.614 29.928 147.053 30.667 146.993 30.9913C146.946 31.2459 146.582 31.2927 146.413 31.1465C146.33 31.0748 145.936 30.1846 145.812 29.9797C145.306 29.1472 144.589 28.3464 143.84 27.7447C143.661 27.6004 142.752 27.0046 142.709 26.926C142.6 26.7301 142.655 26.4158 142.89 26.3621V26.3631Z" fill="#1961AB"/>
<path d="M132.491 31.6498C132.213 31.8706 131.85 31.7204 131.876 31.3414C131.896 31.047 132.454 30.2582 132.652 30.0026C133.06 29.4744 133.595 28.9353 134.126 28.5454C134.373 28.3643 134.889 27.9227 135.18 28.1356C135.309 28.2698 135.344 28.4897 135.243 28.6548C135.18 28.7592 134.313 29.3103 134.119 29.4804C133.459 30.0603 132.873 30.8481 132.491 31.6488V31.6498Z" fill="#1961AB"/>
<path d="M144.505 31.6498C143.919 30.3657 142.9 29.4038 141.753 28.6548C141.555 27.6014 142.46 28.243 142.87 28.5454C143.395 28.9323 143.941 29.4804 144.346 30.0016C144.542 30.2552 145.1 31.049 145.12 31.3404C145.146 31.7194 144.783 31.8696 144.505 31.6488V31.6498Z" fill="#1961AB"/>
<path d="M138.495 29.0706C139.119 29.0706 139.625 28.5491 139.625 27.9058C139.625 27.2625 139.119 26.741 138.495 26.741C137.871 26.741 137.366 27.2625 137.366 27.9058C137.366 28.5491 137.871 29.0706 138.495 29.0706Z" fill="white"/>
</g>
<g clip-path="url(#clip2_1041_8112)">
<path d="M119.451 29.2815C120.89 29.5639 122.324 30.6163 123.046 31.8617C124.107 33.6939 123.651 35.9806 123.943 37.9362C124.169 39.4491 124.821 39.6042 125.669 40.6228C126.427 41.5349 126.66 43.2975 125.174 43.6128L121.013 43.6307L120.954 43.6725C120.221 46.7948 115.742 46.7639 115.021 43.6456L111.014 43.6257C109.391 43.5044 109.473 41.6443 110.278 40.6715C111.138 39.6321 111.81 39.464 112.047 37.9272C112.354 35.9359 111.876 33.661 112.988 31.796C113.705 30.5934 115.145 29.552 116.547 29.2795C116.581 29.1153 116.419 29.0666 116.35 28.9492C115.789 27.9804 116.018 26.7729 117.061 26.2338C118.691 25.3913 120.489 26.9639 119.795 28.6478C119.693 28.8945 119.496 29.0447 119.45 29.2795L119.451 29.2815ZM119.191 27.9058C119.191 27.2633 118.656 26.742 117.995 26.742C117.334 26.742 116.799 27.2633 116.799 27.9058C116.799 28.5484 117.334 29.0696 117.995 29.0696C118.656 29.0696 119.191 28.5484 119.191 27.9058ZM123.733 39.654C123.503 39.2044 123.325 38.7747 123.239 38.2734C122.874 36.1597 123.47 33.4909 121.998 31.6896C120.167 29.4486 116.8 29.189 114.585 31.0689C112.362 32.9548 113.188 35.8036 112.758 38.2743C112.671 38.7757 112.474 39.1974 112.264 39.654H123.733ZM111.637 40.4089C111.189 40.8148 110.712 41.1838 110.555 41.7885C110.441 42.2322 110.389 42.7753 110.968 42.8767L125.188 42.8349C125.717 42.633 125.466 41.7378 125.263 41.3658C125.167 41.1897 124.532 40.4815 124.368 40.4507C120.121 40.4686 115.885 40.3492 111.637 40.4099V40.4089ZM120.164 43.6247H115.832C116.32 45.809 119.661 45.82 120.164 43.6247Z" fill="#1961AB"/>
<path d="M123.733 39.6539H112.264C112.476 39.1974 112.672 38.7766 112.758 38.2743C113.188 35.8035 112.362 32.9558 114.585 31.0689C116.8 29.1889 120.166 29.4485 121.998 31.6896C123.47 33.4909 122.874 36.1596 123.239 38.2733C123.326 38.7746 123.503 39.2044 123.733 39.6539Z" fill="white"/>
<path d="M111.637 40.4089C115.886 40.3482 120.122 40.4676 124.368 40.4497C124.532 40.4805 125.167 41.1888 125.263 41.3648C125.466 41.7378 125.718 42.633 125.188 42.8339L110.968 42.8757C110.389 42.7743 110.441 42.2312 110.555 41.7875C110.711 41.1838 111.188 40.8138 111.637 40.4079V40.4089Z" fill="white"/>
<path d="M120.164 43.6247C119.661 45.82 116.32 45.809 115.832 43.6247H120.164Z" fill="white"/>
<path d="M113.117 26.3631C113.491 26.2815 113.727 26.6117 113.542 26.927C113.494 27.0086 112.561 27.5815 112.373 27.7238C111.178 28.625 110.248 29.8086 109.619 31.1475C109.151 31.3673 108.895 31.1117 109.042 30.6352C109.41 29.4495 111.12 27.684 112.146 26.9569C112.297 26.8505 112.992 26.3899 113.117 26.3621V26.3631Z" fill="#1961AB"/>
<path d="M122.648 26.3631C122.769 26.3372 122.842 26.3501 122.953 26.3919C123.14 26.4625 123.691 26.8425 123.881 26.9778C124.844 27.6641 125.775 28.6429 126.404 29.6326C126.591 29.928 127.056 30.667 126.993 30.9913C126.943 31.2459 126.558 31.2927 126.378 31.1465C126.29 31.0748 125.873 30.1846 125.742 29.9797C125.207 29.1472 124.448 28.3464 123.654 27.7447C123.464 27.6004 122.502 27.0046 122.456 26.926C122.341 26.7301 122.399 26.4158 122.648 26.3621V26.3631Z" fill="#1961AB"/>
<path d="M111.638 31.6498C111.343 31.8706 110.959 31.7204 110.987 31.3414C111.008 31.047 111.598 30.2582 111.808 30.0026C112.24 29.4744 112.807 28.9353 113.369 28.5454C113.631 28.3643 114.176 27.9227 114.485 28.1356C114.621 28.2698 114.658 28.4897 114.552 28.6548C114.485 28.7592 113.566 29.3103 113.361 29.4804C112.663 30.0603 112.042 30.8481 111.638 31.6488V31.6498Z" fill="#1961AB"/>
<path d="M124.358 31.6498C123.738 30.3657 122.658 29.4038 121.444 28.6548C121.234 27.6014 122.192 28.243 122.627 28.5454C123.183 28.9323 123.761 29.4804 124.189 30.0016C124.398 30.2552 124.988 31.049 125.009 31.3404C125.037 31.7194 124.653 31.8696 124.358 31.6488V31.6498Z" fill="#1961AB"/>
<path d="M117.995 29.0706C118.655 29.0706 119.191 28.5491 119.191 27.9058C119.191 27.2625 118.655 26.741 117.995 26.741C117.334 26.741 116.799 27.2625 116.799 27.9058C116.799 28.5491 117.334 29.0706 117.995 29.0706Z" fill="white"/>
</g>
<g clip-path="url(#clip3_1041_8112)">
<path d="M160.871 29.2815C162.23 29.5639 163.584 30.6163 164.266 31.8617C165.268 33.6939 164.837 35.9806 165.113 37.9362C165.326 39.4491 165.943 39.6042 166.743 40.6228C167.459 41.5349 167.679 43.2975 166.275 43.6128L162.346 43.6307L162.29 43.6725C161.598 46.7948 157.367 46.7639 156.686 43.6456L152.902 43.6257C151.369 43.5044 151.447 41.6443 152.207 40.6715C153.019 39.6321 153.654 39.464 153.877 37.9272C154.168 35.9359 153.716 33.661 154.767 31.796C155.444 30.5934 156.804 29.552 158.127 29.2795C158.16 29.1153 158.007 29.0666 157.942 28.9492C157.412 27.9804 157.629 26.7729 158.614 26.2338C160.153 25.3913 161.851 26.9639 161.196 28.6478C161.099 28.8945 160.913 29.0447 160.87 29.2795L160.871 29.2815ZM160.625 27.9058C160.625 27.2633 160.119 26.742 159.495 26.742C158.871 26.742 158.366 27.2633 158.366 27.9058C158.366 28.5484 158.871 29.0696 159.495 29.0696C160.119 29.0696 160.625 28.5484 160.625 27.9058ZM164.914 39.654C164.697 39.2044 164.529 38.7747 164.448 38.2734C164.103 36.1597 164.666 33.4909 163.276 31.6896C161.547 29.4486 158.367 29.189 156.274 31.0689C154.175 32.9548 154.956 35.8036 154.55 38.2743C154.467 38.7757 154.282 39.1974 154.083 39.654H164.914ZM153.491 40.4089C153.067 40.8148 152.617 41.1838 152.469 41.7885C152.361 42.2322 152.312 42.7753 152.859 42.8767L166.289 42.8349C166.788 42.633 166.551 41.7378 166.359 41.3658C166.269 41.1897 165.67 40.4815 165.514 40.4507C161.503 40.4686 157.502 40.3492 153.491 40.4099V40.4089ZM161.544 43.6247H157.452C157.913 45.809 161.068 45.82 161.544 43.6247Z" fill="#1961AB"/>
<path d="M164.914 39.6539H154.083C154.282 39.1974 154.468 38.7766 154.55 38.2743C154.956 35.8035 154.175 32.9558 156.274 31.0689C158.367 29.1889 161.546 29.4485 163.276 31.6896C164.666 33.4909 164.103 36.1596 164.448 38.2733C164.53 38.7746 164.697 39.2044 164.914 39.6539Z" fill="white"/>
<path d="M153.491 40.4089C157.503 40.3482 161.505 40.4676 165.514 40.4497C165.67 40.4805 166.269 41.1888 166.359 41.3648C166.551 41.7378 166.79 42.633 166.289 42.8339L152.859 42.8757C152.312 42.7743 152.361 42.2312 152.469 41.7875C152.616 41.1838 153.066 40.8138 153.491 40.4079V40.4089Z" fill="white"/>
<path d="M161.544 43.6247C161.068 45.82 157.913 45.809 157.452 43.6247H161.544Z" fill="white"/>
<path d="M154.888 26.3631C155.241 26.2815 155.464 26.6117 155.29 26.927C155.244 27.0086 154.364 27.5815 154.185 27.7238C153.057 28.625 152.179 29.8086 151.585 31.1475C151.143 31.3673 150.901 31.1117 151.04 30.6352C151.387 29.4495 153.003 27.684 153.971 26.9569C154.114 26.8505 154.771 26.3899 154.888 26.3621V26.3631Z" fill="#1961AB"/>
<path d="M163.89 26.3631C164.004 26.3372 164.073 26.3501 164.178 26.3919C164.355 26.4625 164.875 26.8425 165.054 26.9778C165.964 27.6641 166.843 28.6429 167.437 29.6326C167.614 29.928 168.053 30.667 167.993 30.9913C167.946 31.2459 167.582 31.2927 167.413 31.1465C167.33 31.0748 166.936 30.1846 166.812 29.9797C166.306 29.1472 165.589 28.3464 164.84 27.7447C164.661 27.6004 163.752 27.0046 163.709 26.926C163.6 26.7301 163.655 26.4158 163.89 26.3621V26.3631Z" fill="#1961AB"/>
<path d="M153.491 31.6498C153.213 31.8706 152.85 31.7204 152.876 31.3414C152.896 31.047 153.454 30.2582 153.652 30.0026C154.06 29.4744 154.595 28.9353 155.126 28.5454C155.373 28.3643 155.889 27.9227 156.18 28.1356C156.309 28.2698 156.344 28.4897 156.243 28.6548C156.18 28.7592 155.313 29.3103 155.119 29.4804C154.459 30.0603 153.873 30.8481 153.491 31.6488V31.6498Z" fill="#1961AB"/>
<path d="M165.505 31.6498C164.919 30.3657 163.9 29.4038 162.753 28.6548C162.555 27.6014 163.46 28.243 163.87 28.5454C164.395 28.9323 164.941 29.4804 165.346 30.0016C165.542 30.2552 166.1 31.049 166.12 31.3404C166.146 31.7194 165.783 31.8696 165.505 31.6488V31.6498Z" fill="#1961AB"/>
<path d="M159.495 29.0706C160.119 29.0706 160.625 28.5491 160.625 27.9058C160.625 27.2625 160.119 26.741 159.495 26.741C158.871 26.741 158.366 27.2625 158.366 27.9058C158.366 28.5491 158.871 29.0706 159.495 29.0706Z" fill="white"/>
</g>
<g clip-path="url(#clip4_1041_8112)">
<path d="M234.871 29.2815C236.23 29.5639 237.584 30.6163 238.266 31.8617C239.268 33.6939 238.837 35.9806 239.113 37.9362C239.326 39.4491 239.943 39.6042 240.743 40.6228C241.459 41.5349 241.679 43.2975 240.275 43.6128L236.346 43.6307L236.29 43.6725C235.598 46.7948 231.367 46.7639 230.686 43.6456L226.902 43.6257C225.369 43.5044 225.447 41.6443 226.207 40.6715C227.019 39.6321 227.654 39.464 227.877 37.9272C228.168 35.9359 227.716 33.661 228.767 31.796C229.444 30.5934 230.804 29.552 232.127 29.2795C232.16 29.1153 232.007 29.0666 231.942 28.9492C231.412 27.9804 231.629 26.7729 232.614 26.2338C234.153 25.3913 235.851 26.9639 235.196 28.6478C235.099 28.8945 234.913 29.0447 234.87 29.2795L234.871 29.2815ZM234.625 27.9058C234.625 27.2633 234.119 26.742 233.495 26.742C232.871 26.742 232.366 27.2633 232.366 27.9058C232.366 28.5484 232.871 29.0696 233.495 29.0696C234.119 29.0696 234.625 28.5484 234.625 27.9058ZM238.914 39.654C238.697 39.2044 238.529 38.7747 238.448 38.2734C238.103 36.1597 238.666 33.4909 237.276 31.6896C235.547 29.4486 232.367 29.189 230.274 31.0689C228.175 32.9548 228.956 35.8036 228.55 38.2743C228.467 38.7757 228.282 39.1974 228.083 39.654H238.914ZM227.491 40.4089C227.067 40.8148 226.617 41.1838 226.469 41.7885C226.361 42.2322 226.312 42.7753 226.859 42.8767L240.289 42.8349C240.788 42.633 240.551 41.7378 240.359 41.3658C240.269 41.1897 239.67 40.4815 239.514 40.4507C235.503 40.4686 231.502 40.3492 227.491 40.4099V40.4089ZM235.544 43.6247H231.452C231.913 45.809 235.068 45.82 235.544 43.6247Z" fill="#1961AB"/>
<path d="M238.914 39.6539H228.083C228.282 39.1974 228.468 38.7766 228.55 38.2743C228.956 35.8035 228.175 32.9558 230.274 31.0689C232.367 29.1889 235.546 29.4485 237.276 31.6896C238.666 33.4909 238.103 36.1596 238.448 38.2733C238.53 38.7746 238.697 39.2044 238.914 39.6539Z" fill="white"/>
<path d="M227.491 40.4089C231.503 40.3482 235.505 40.4676 239.514 40.4497C239.67 40.4805 240.269 41.1888 240.359 41.3648C240.551 41.7378 240.79 42.633 240.289 42.8339L226.859 42.8757C226.312 42.7743 226.361 42.2312 226.469 41.7875C226.616 41.1838 227.066 40.8138 227.491 40.4079V40.4089Z" fill="white"/>
<path d="M235.544 43.6247C235.068 45.82 231.913 45.809 231.452 43.6247H235.544Z" fill="white"/>
<path d="M228.888 26.3631C229.241 26.2815 229.464 26.6117 229.29 26.927C229.244 27.0086 228.364 27.5815 228.185 27.7238C227.057 28.625 226.179 29.8086 225.585 31.1475C225.143 31.3673 224.901 31.1117 225.04 30.6352C225.387 29.4495 227.003 27.684 227.971 26.9569C228.114 26.8505 228.771 26.3899 228.888 26.3621V26.3631Z" fill="#1961AB"/>
<path d="M237.89 26.3631C238.004 26.3372 238.073 26.3501 238.178 26.3919C238.355 26.4625 238.875 26.8425 239.054 26.9778C239.964 27.6641 240.843 28.6429 241.437 29.6326C241.614 29.928 242.053 30.667 241.993 30.9913C241.946 31.2459 241.582 31.2927 241.413 31.1465C241.33 31.0748 240.936 30.1846 240.812 29.9797C240.306 29.1472 239.589 28.3464 238.84 27.7447C238.661 27.6004 237.752 27.0046 237.709 26.926C237.6 26.7301 237.655 26.4158 237.89 26.3621V26.3631Z" fill="#1961AB"/>
<path d="M227.491 31.6498C227.213 31.8706 226.85 31.7204 226.876 31.3414C226.896 31.047 227.454 30.2582 227.652 30.0026C228.06 29.4744 228.595 28.9353 229.126 28.5454C229.373 28.3643 229.889 27.9227 230.18 28.1356C230.309 28.2698 230.344 28.4897 230.243 28.6548C230.18 28.7592 229.313 29.3103 229.119 29.4804C228.459 30.0603 227.873 30.8481 227.491 31.6488V31.6498Z" fill="#1961AB"/>
<path d="M239.505 31.6498C238.919 30.3657 237.9 29.4038 236.753 28.6548C236.555 27.6014 237.46 28.243 237.87 28.5454C238.395 28.9323 238.941 29.4804 239.346 30.0016C239.542 30.2552 240.1 31.049 240.12 31.3404C240.146 31.7194 239.783 31.8696 239.505 31.6488V31.6498Z" fill="#1961AB"/>
<path d="M233.495 29.0706C234.119 29.0706 234.625 28.5491 234.625 27.9058C234.625 27.2625 234.119 26.741 233.495 26.741C232.871 26.741 232.366 27.2625 232.366 27.9058C232.366 28.5491 232.871 29.0706 233.495 29.0706Z" fill="white"/>
</g>
<g clip-path="url(#clip5_1041_8112)">
<path d="M214.451 29.2815C215.89 29.5639 217.324 30.6163 218.046 31.8617C219.107 33.6939 218.651 35.9806 218.943 37.9362C219.169 39.4491 219.821 39.6042 220.669 40.6228C221.427 41.5349 221.66 43.2975 220.174 43.6128L216.013 43.6307L215.954 43.6725C215.221 46.7948 210.742 46.7639 210.021 43.6456L206.014 43.6257C204.391 43.5044 204.473 41.6443 205.278 40.6715C206.138 39.6321 206.81 39.464 207.047 37.9272C207.354 35.9359 206.876 33.661 207.988 31.796C208.705 30.5934 210.145 29.552 211.547 29.2795C211.581 29.1153 211.419 29.0666 211.35 28.9492C210.789 27.9804 211.018 26.7729 212.061 26.2338C213.691 25.3913 215.489 26.9639 214.795 28.6478C214.693 28.8945 214.496 29.0447 214.45 29.2795L214.451 29.2815ZM214.191 27.9058C214.191 27.2633 213.656 26.742 212.995 26.742C212.334 26.742 211.799 27.2633 211.799 27.9058C211.799 28.5484 212.334 29.0696 212.995 29.0696C213.656 29.0696 214.191 28.5484 214.191 27.9058ZM218.733 39.654C218.503 39.2044 218.325 38.7747 218.239 38.2734C217.874 36.1597 218.47 33.4909 216.998 31.6896C215.167 29.4486 211.8 29.189 209.585 31.0689C207.362 32.9548 208.188 35.8036 207.758 38.2743C207.671 38.7757 207.474 39.1974 207.264 39.654H218.733ZM206.637 40.4089C206.189 40.8148 205.712 41.1838 205.555 41.7885C205.441 42.2322 205.389 42.7753 205.968 42.8767L220.188 42.8349C220.717 42.633 220.466 41.7378 220.263 41.3658C220.167 41.1897 219.532 40.4815 219.368 40.4507C215.121 40.4686 210.885 40.3492 206.637 40.4099V40.4089ZM215.164 43.6247H210.832C211.32 45.809 214.661 45.82 215.164 43.6247Z" fill="#1961AB"/>
<path d="M218.733 39.6539H207.264C207.476 39.1974 207.672 38.7766 207.758 38.2743C208.188 35.8035 207.362 32.9558 209.585 31.0689C211.8 29.1889 215.166 29.4485 216.998 31.6896C218.47 33.4909 217.874 36.1596 218.239 38.2733C218.326 38.7746 218.503 39.2044 218.733 39.6539Z" fill="white"/>
<path d="M206.637 40.4089C210.886 40.3482 215.122 40.4676 219.368 40.4497C219.532 40.4805 220.167 41.1888 220.263 41.3648C220.466 41.7378 220.718 42.633 220.188 42.8339L205.968 42.8757C205.389 42.7743 205.441 42.2312 205.555 41.7875C205.711 41.1838 206.188 40.8138 206.637 40.4079V40.4089Z" fill="white"/>
<path d="M215.164 43.6247C214.661 45.82 211.32 45.809 210.832 43.6247H215.164Z" fill="white"/>
<path d="M208.117 26.3631C208.491 26.2815 208.727 26.6117 208.542 26.927C208.494 27.0086 207.561 27.5815 207.373 27.7238C206.178 28.625 205.248 29.8086 204.619 31.1475C204.151 31.3673 203.895 31.1117 204.042 30.6352C204.41 29.4495 206.12 27.684 207.146 26.9569C207.297 26.8505 207.992 26.3899 208.117 26.3621V26.3631Z" fill="#1961AB"/>
<path d="M217.648 26.3631C217.769 26.3372 217.842 26.3501 217.953 26.3919C218.14 26.4625 218.691 26.8425 218.881 26.9778C219.844 27.6641 220.775 28.6429 221.404 29.6326C221.591 29.928 222.056 30.667 221.993 30.9913C221.943 31.2459 221.558 31.2927 221.378 31.1465C221.29 31.0748 220.873 30.1846 220.742 29.9797C220.207 29.1472 219.448 28.3464 218.654 27.7447C218.464 27.6004 217.502 27.0046 217.456 26.926C217.341 26.7301 217.399 26.4158 217.648 26.3621V26.3631Z" fill="#1961AB"/>
<path d="M206.638 31.6498C206.343 31.8706 205.959 31.7204 205.987 31.3414C206.008 31.047 206.598 30.2582 206.808 30.0026C207.24 29.4744 207.807 28.9353 208.369 28.5454C208.631 28.3643 209.176 27.9227 209.485 28.1356C209.621 28.2698 209.658 28.4897 209.552 28.6548C209.485 28.7592 208.566 29.3103 208.361 29.4804C207.663 30.0603 207.042 30.8481 206.638 31.6488V31.6498Z" fill="#1961AB"/>
<path d="M219.358 31.6498C218.738 30.3657 217.658 29.4038 216.444 28.6548C216.234 27.6014 217.192 28.243 217.627 28.5454C218.183 28.9323 218.761 29.4804 219.189 30.0016C219.398 30.2552 219.988 31.049 220.009 31.3404C220.037 31.7194 219.653 31.8696 219.358 31.6488V31.6498Z" fill="#1961AB"/>
<path d="M212.995 29.0706C213.655 29.0706 214.191 28.5491 214.191 27.9058C214.191 27.2625 213.655 26.741 212.995 26.741C212.334 26.741 211.799 27.2625 211.799 27.9058C211.799 28.5491 212.334 29.0706 212.995 29.0706Z" fill="white"/>
</g>
<g clip-path="url(#clip6_1041_8112)">
<path d="M223.871 3.28146C225.23 3.56394 226.584 4.61631 227.266 5.86165C228.268 7.69385 227.837 9.98062 228.113 11.9362C228.326 13.4491 228.943 13.6042 229.743 14.6228C230.459 15.5349 230.679 17.2975 229.275 17.6128L225.346 17.6307L225.29 17.6725C224.598 20.7948 220.367 20.7639 219.686 17.6456L215.902 17.6257C214.369 17.5044 214.447 15.6443 215.207 14.6715C216.019 13.6321 216.654 13.464 216.877 11.9272C217.168 9.93586 216.716 7.66103 217.767 5.796C218.444 4.59344 219.804 3.55201 221.127 3.27947C221.16 3.11534 221.007 3.06661 220.942 2.94923C220.412 1.98042 220.629 0.772876 221.614 0.23376C223.153 -0.608733 224.851 0.963854 224.196 2.64785C224.099 2.89453 223.913 3.04472 223.87 3.27947L223.871 3.28146ZM223.625 1.90582C223.625 1.26325 223.119 0.742041 222.495 0.742041C221.871 0.742041 221.366 1.26325 221.366 1.90582C221.366 2.54838 221.871 3.06959 222.495 3.06959C223.119 3.06959 223.625 2.54838 223.625 1.90582ZM227.914 13.654C227.697 13.2044 227.529 12.7747 227.448 12.2734C227.103 10.1597 227.666 7.49094 226.276 5.68957C224.547 3.44856 221.367 3.18895 219.274 5.06889C217.175 6.9548 217.956 9.80356 217.55 12.2743C217.467 12.7757 217.282 13.1974 217.083 13.654H227.914ZM216.491 14.4089C216.067 14.8148 215.617 15.1838 215.469 15.7885C215.361 16.2322 215.312 16.7753 215.859 16.8767L229.289 16.8349C229.788 16.633 229.551 15.7378 229.359 15.3658C229.269 15.1897 228.67 14.4815 228.514 14.4507C224.503 14.4686 220.502 14.3492 216.491 14.4099V14.4089ZM224.544 17.6247H220.452C220.913 19.809 224.068 19.82 224.544 17.6247Z" fill="#1961AB"/>
<path d="M227.914 13.6539H217.083C217.282 13.1974 217.468 12.7766 217.55 12.2743C217.956 9.80354 217.175 6.95578 219.274 5.06888C221.367 3.18893 224.546 3.44855 226.276 5.68956C227.666 7.49092 227.103 10.1596 227.448 12.2733C227.53 12.7746 227.697 13.2044 227.914 13.6539Z" fill="white"/>
<path d="M216.491 14.4089C220.503 14.3482 224.505 14.4676 228.514 14.4497C228.67 14.4805 229.269 15.1888 229.359 15.3648C229.551 15.7378 229.79 16.633 229.289 16.8339L215.859 16.8757C215.312 16.7743 215.361 16.2312 215.469 15.7875C215.616 15.1838 216.066 14.8138 216.491 14.4079V14.4089Z" fill="white"/>
<path d="M224.544 17.6247C224.068 19.82 220.913 19.809 220.452 17.6247H224.544Z" fill="white"/>
<path d="M217.888 0.363061C218.241 0.281497 218.464 0.61173 218.29 0.927044C218.244 1.00861 217.364 1.58154 217.185 1.72378C216.057 2.62496 215.179 3.80863 214.585 5.14746C214.143 5.36729 213.901 5.11166 214.04 4.63521C214.387 3.44955 216.003 1.68399 216.971 0.956884C217.114 0.850453 217.771 0.389917 217.888 0.362066V0.363061Z" fill="#1961AB"/>
<path d="M226.89 0.363057C227.004 0.337195 227.073 0.350126 227.178 0.391902C227.355 0.462524 227.875 0.842492 228.054 0.977768C228.964 1.6641 229.843 2.64286 230.437 3.63256C230.614 3.92798 231.053 4.66703 230.993 4.9913C230.946 5.24593 230.582 5.29268 230.413 5.14647C230.33 5.07485 229.936 4.18461 229.812 3.97971C229.306 3.14716 228.589 2.34645 227.84 1.74467C227.661 1.60044 226.752 1.00462 226.709 0.926045C226.6 0.730093 226.655 0.415774 226.89 0.362062V0.363057Z" fill="#1961AB"/>
<path d="M216.491 5.64976C216.213 5.87058 215.85 5.72039 215.876 5.34141C215.896 5.04699 216.454 4.25821 216.652 4.00258C217.06 3.4744 217.595 2.93529 218.126 2.54537C218.373 2.36434 218.889 1.9227 219.18 2.13556C219.309 2.26985 219.344 2.48967 219.243 2.65479C219.18 2.75923 218.313 3.31028 218.119 3.48037C217.459 4.06027 216.873 4.84805 216.491 5.64877V5.64976Z" fill="#1961AB"/>
<path d="M228.505 5.64978C227.919 4.36565 226.9 3.4038 225.753 2.6548C225.555 1.60144 226.46 2.24301 226.87 2.54539C227.395 2.93232 227.941 3.48039 228.346 4.0016C228.542 4.25524 229.1 5.04899 229.12 5.34044C229.146 5.71941 228.783 5.8696 228.505 5.64879V5.64978Z" fill="#1961AB"/>
<path d="M222.495 3.07056C223.119 3.07056 223.625 2.54908 223.625 1.9058C223.625 1.26251 223.119 0.741028 222.495 0.741028C221.871 0.741028 221.366 1.26251 221.366 1.9058C221.366 2.54908 221.871 3.07056 222.495 3.07056Z" fill="white"/>
</g>
<g clip-path="url(#clip7_1041_8112)">
<path d="M244.451 3.28146C245.89 3.56394 247.324 4.61631 248.046 5.86165C249.107 7.69385 248.651 9.98062 248.943 11.9362C249.169 13.4491 249.821 13.6042 250.669 14.6228C251.427 15.5349 251.66 17.2975 250.174 17.6128L246.013 17.6307L245.954 17.6725C245.221 20.7948 240.742 20.7639 240.021 17.6456L236.014 17.6257C234.391 17.5044 234.473 15.6443 235.278 14.6715C236.138 13.6321 236.81 13.464 237.047 11.9272C237.354 9.93586 236.876 7.66103 237.988 5.796C238.705 4.59344 240.145 3.55201 241.547 3.27947C241.581 3.11534 241.419 3.06661 241.35 2.94923C240.789 1.98042 241.018 0.772876 242.061 0.23376C243.691 -0.608733 245.489 0.963854 244.795 2.64785C244.693 2.89453 244.496 3.04472 244.45 3.27947L244.451 3.28146ZM244.191 1.90582C244.191 1.26325 243.656 0.742041 242.995 0.742041C242.334 0.742041 241.799 1.26325 241.799 1.90582C241.799 2.54838 242.334 3.06959 242.995 3.06959C243.656 3.06959 244.191 2.54838 244.191 1.90582ZM248.733 13.654C248.503 13.2044 248.325 12.7747 248.239 12.2734C247.874 10.1597 248.47 7.49094 246.998 5.68957C245.167 3.44856 241.8 3.18895 239.585 5.06889C237.362 6.9548 238.188 9.80356 237.758 12.2743C237.671 12.7757 237.474 13.1974 237.264 13.654H248.733ZM236.637 14.4089C236.189 14.8148 235.712 15.1838 235.555 15.7885C235.441 16.2322 235.389 16.7753 235.968 16.8767L250.188 16.8349C250.717 16.633 250.466 15.7378 250.263 15.3658C250.167 15.1897 249.532 14.4815 249.368 14.4507C245.121 14.4686 240.885 14.3492 236.637 14.4099V14.4089ZM245.164 17.6247H240.832C241.32 19.809 244.661 19.82 245.164 17.6247Z" fill="#1961AB"/>
<path d="M248.733 13.6539H237.264C237.476 13.1974 237.672 12.7766 237.758 12.2743C238.188 9.80354 237.362 6.95578 239.585 5.06888C241.8 3.18893 245.166 3.44855 246.998 5.68956C248.47 7.49092 247.874 10.1596 248.239 12.2733C248.326 12.7746 248.503 13.2044 248.733 13.6539Z" fill="white"/>
<path d="M236.637 14.4089C240.886 14.3482 245.122 14.4676 249.368 14.4497C249.532 14.4805 250.167 15.1888 250.263 15.3648C250.466 15.7378 250.718 16.633 250.188 16.8339L235.968 16.8757C235.389 16.7743 235.441 16.2312 235.555 15.7875C235.711 15.1838 236.188 14.8138 236.637 14.4079V14.4089Z" fill="white"/>
<path d="M245.164 17.6247C244.661 19.82 241.32 19.809 240.832 17.6247H245.164Z" fill="white"/>
<path d="M238.117 0.363061C238.491 0.281497 238.727 0.61173 238.542 0.927044C238.494 1.00861 237.561 1.58154 237.373 1.72378C236.178 2.62496 235.248 3.80863 234.619 5.14746C234.151 5.36729 233.895 5.11166 234.042 4.63521C234.41 3.44955 236.12 1.68399 237.146 0.956884C237.297 0.850453 237.992 0.389917 238.117 0.362066V0.363061Z" fill="#1961AB"/>
<path d="M247.648 0.363057C247.769 0.337195 247.842 0.350126 247.953 0.391902C248.14 0.462524 248.691 0.842492 248.881 0.977768C249.844 1.6641 250.775 2.64286 251.404 3.63256C251.591 3.92798 252.056 4.66703 251.993 4.9913C251.943 5.24593 251.558 5.29268 251.378 5.14647C251.29 5.07485 250.873 4.18461 250.742 3.97971C250.207 3.14716 249.448 2.34645 248.654 1.74467C248.464 1.60044 247.502 1.00462 247.456 0.926045C247.341 0.730093 247.399 0.415774 247.648 0.362062V0.363057Z" fill="#1961AB"/>
<path d="M236.638 5.64976C236.343 5.87058 235.959 5.72039 235.987 5.34141C236.008 5.04699 236.598 4.25821 236.808 4.00258C237.24 3.4744 237.807 2.93529 238.369 2.54537C238.631 2.36434 239.176 1.9227 239.485 2.13556C239.621 2.26985 239.658 2.48967 239.552 2.65479C239.485 2.75923 238.566 3.31028 238.361 3.48037C237.663 4.06027 237.042 4.84805 236.638 5.64877V5.64976Z" fill="#1961AB"/>
<path d="M249.358 5.64978C248.738 4.36565 247.658 3.4038 246.444 2.6548C246.234 1.60144 247.192 2.24301 247.627 2.54539C248.183 2.93232 248.761 3.48039 249.189 4.0016C249.398 4.25524 249.988 5.04899 250.009 5.34044C250.037 5.71941 249.653 5.8696 249.358 5.64879V5.64978Z" fill="#1961AB"/>
<path d="M242.995 3.07056C243.655 3.07056 244.191 2.54908 244.191 1.9058C244.191 1.26251 243.655 0.741028 242.995 0.741028C242.334 0.741028 241.799 1.26251 241.799 1.9058C241.799 2.54908 242.334 3.07056 242.995 3.07056Z" fill="white"/>
</g>
<g clip-path="url(#clip8_1041_8112)">
<path d="M255.871 29.2815C257.23 29.5639 258.584 30.6163 259.266 31.8617C260.268 33.6939 259.837 35.9806 260.113 37.9362C260.326 39.4491 260.943 39.6042 261.743 40.6228C262.459 41.5349 262.679 43.2975 261.275 43.6128L257.346 43.6307L257.29 43.6725C256.598 46.7948 252.367 46.7639 251.686 43.6456L247.902 43.6257C246.369 43.5044 246.447 41.6443 247.207 40.6715C248.019 39.6321 248.654 39.464 248.877 37.9272C249.168 35.9359 248.716 33.661 249.767 31.796C250.444 30.5934 251.804 29.552 253.127 29.2795C253.16 29.1153 253.007 29.0666 252.942 28.9492C252.412 27.9804 252.629 26.7729 253.614 26.2338C255.153 25.3913 256.851 26.9639 256.196 28.6478C256.099 28.8945 255.913 29.0447 255.87 29.2795L255.871 29.2815ZM255.625 27.9058C255.625 27.2633 255.119 26.742 254.495 26.742C253.871 26.742 253.366 27.2633 253.366 27.9058C253.366 28.5484 253.871 29.0696 254.495 29.0696C255.119 29.0696 255.625 28.5484 255.625 27.9058ZM259.914 39.654C259.697 39.2044 259.529 38.7747 259.448 38.2734C259.103 36.1597 259.666 33.4909 258.276 31.6896C256.547 29.4486 253.367 29.189 251.274 31.0689C249.175 32.9548 249.956 35.8036 249.55 38.2743C249.467 38.7757 249.282 39.1974 249.083 39.654H259.914ZM248.491 40.4089C248.067 40.8148 247.617 41.1838 247.469 41.7885C247.361 42.2322 247.312 42.7753 247.859 42.8767L261.289 42.8349C261.788 42.633 261.551 41.7378 261.359 41.3658C261.269 41.1897 260.67 40.4815 260.514 40.4507C256.503 40.4686 252.502 40.3492 248.491 40.4099V40.4089ZM256.544 43.6247H252.452C252.913 45.809 256.068 45.82 256.544 43.6247Z" fill="#1961AB"/>
<path d="M259.914 39.6539H249.083C249.282 39.1974 249.468 38.7766 249.55 38.2743C249.956 35.8035 249.175 32.9558 251.274 31.0689C253.367 29.1889 256.546 29.4485 258.276 31.6896C259.666 33.4909 259.103 36.1596 259.448 38.2733C259.53 38.7746 259.697 39.2044 259.914 39.6539Z" fill="white"/>
<path d="M248.491 40.4089C252.503 40.3482 256.505 40.4676 260.514 40.4497C260.67 40.4805 261.269 41.1888 261.359 41.3648C261.551 41.7378 261.79 42.633 261.289 42.8339L247.859 42.8757C247.312 42.7743 247.361 42.2312 247.469 41.7875C247.616 41.1838 248.066 40.8138 248.491 40.4079V40.4089Z" fill="white"/>
<path d="M256.544 43.6247C256.068 45.82 252.913 45.809 252.452 43.6247H256.544Z" fill="white"/>
<path d="M249.888 26.3631C250.241 26.2815 250.464 26.6117 250.29 26.927C250.244 27.0086 249.364 27.5815 249.185 27.7238C248.057 28.625 247.179 29.8086 246.585 31.1475C246.143 31.3673 245.901 31.1117 246.04 30.6352C246.387 29.4495 248.003 27.684 248.971 26.9569C249.114 26.8505 249.771 26.3899 249.888 26.3621V26.3631Z" fill="#1961AB"/>
<path d="M258.89 26.3631C259.004 26.3372 259.073 26.3501 259.178 26.3919C259.355 26.4625 259.875 26.8425 260.054 26.9778C260.964 27.6641 261.843 28.6429 262.437 29.6326C262.614 29.928 263.053 30.667 262.993 30.9913C262.946 31.2459 262.582 31.2927 262.413 31.1465C262.33 31.0748 261.936 30.1846 261.812 29.9797C261.306 29.1472 260.589 28.3464 259.84 27.7447C259.661 27.6004 258.752 27.0046 258.709 26.926C258.6 26.7301 258.655 26.4158 258.89 26.3621V26.3631Z" fill="#1961AB"/>
<path d="M248.491 31.6498C248.213 31.8706 247.85 31.7204 247.876 31.3414C247.896 31.047 248.454 30.2582 248.652 30.0026C249.06 29.4744 249.595 28.9353 250.126 28.5454C250.373 28.3643 250.889 27.9227 251.18 28.1356C251.309 28.2698 251.344 28.4897 251.243 28.6548C251.18 28.7592 250.313 29.3103 250.119 29.4804C249.459 30.0603 248.873 30.8481 248.491 31.6488V31.6498Z" fill="#1961AB"/>
<path d="M260.505 31.6498C259.919 30.3657 258.9 29.4038 257.753 28.6548C257.555 27.6014 258.46 28.243 258.87 28.5454C259.395 28.9323 259.941 29.4804 260.346 30.0016C260.542 30.2552 261.1 31.049 261.12 31.3404C261.146 31.7194 260.783 31.8696 260.505 31.6488V31.6498Z" fill="#1961AB"/>
<path d="M254.495 29.0706C255.119 29.0706 255.625 28.5491 255.625 27.9058C255.625 27.2625 255.119 26.741 254.495 26.741C253.871 26.741 253.366 27.2625 253.366 27.9058C253.366 28.5491 253.871 29.0706 254.495 29.0706Z" fill="white"/>
</g>
<defs>
<clipPath id="clip0_1041_8112">
<rect width="17" height="20" fill="white" transform="translate(36 26)"/>
</clipPath>
<clipPath id="clip1_1041_8112">
<rect width="17" height="20" fill="white" transform="translate(130 26)"/>
</clipPath>
<clipPath id="clip2_1041_8112">
<rect width="18" height="20" fill="white" transform="translate(109 26)"/>
</clipPath>
<clipPath id="clip3_1041_8112">
<rect width="17" height="20" fill="white" transform="translate(151 26)"/>
</clipPath>
<clipPath id="clip4_1041_8112">
<rect width="17" height="20" fill="white" transform="translate(225 26)"/>
</clipPath>
<clipPath id="clip5_1041_8112">
<rect width="18" height="20" fill="white" transform="translate(204 26)"/>
</clipPath>
<clipPath id="clip6_1041_8112">
<rect width="17" height="20" fill="white" transform="translate(214)"/>
</clipPath>
<clipPath id="clip7_1041_8112">
<rect width="18" height="20" fill="white" transform="translate(234)"/>
</clipPath>
<clipPath id="clip8_1041_8112">
<rect width="17" height="20" fill="white" transform="translate(246 26)"/>
</clipPath>
</defs>
</svg>
