<svg width="400" height="262" viewBox="0 0 400 262" fill="none" xmlns="http://www.w3.org/2000/svg">
<rect width="400" height="261.785" transform="matrix(1 0 0 -1 0 262)" fill="#ECEC3E"/>
<path d="M30.6636 65.2033C22.4256 73.4413 16.476 89.002 12.357 104.563C8.23799 120.123 0 261.542 0 261.542H399.085V18.9791H384.439H295.194C265.446 18.9791 215.103 24.0134 199.542 25.3864C183.982 26.7594 130.892 38.201 130.892 38.201C130.892 38.201 38.9016 56.9653 30.6636 65.2033Z" fill="#EB4921"/>
<path d="M0 261.542C0 261.542 0.457666 77.1026 7.32265 64.7457C14.1876 52.3887 16.0183 41.8624 31.5789 34.5397C47.1396 27.217 118.535 18.0637 131.35 17.1484C144.165 16.2331 188.101 12.1141 198.627 11.6564C209.153 11.1987 268.192 5.24908 288.787 5.24908H380.32H399.542V0.214752H0V261.542Z" fill="#00C877"/>
</svg>
