<svg width="400" height="262" viewBox="0 0 400 262" fill="none" xmlns="http://www.w3.org/2000/svg">
<rect width="400" height="261.785" fill="#ECEC3E"/>
<path d="M30.6636 196.797C22.4256 188.559 16.476 172.998 12.357 157.437C8.23799 141.877 0 0.458008 0 0.458008H399.085V243.021H384.439H295.194C265.446 243.021 215.103 237.987 199.542 236.614C183.982 235.241 130.892 223.799 130.892 223.799C130.892 223.799 38.9016 205.035 30.6636 196.797Z" fill="#EB4921"/>
<path d="M0 0.458008C0 0.458008 0.457666 184.897 7.32265 197.254C14.1876 209.611 16.0183 220.138 31.5789 227.46C47.1396 234.783 118.535 243.936 131.35 244.852C144.165 245.767 188.101 249.886 198.627 250.344C209.153 250.801 268.192 256.751 288.787 256.751H380.32H399.542V261.785H0V0.458008Z" fill="#00C877"/>
</svg>
