<svg width="400" height="262" viewBox="0 0 400 262" fill="none" xmlns="http://www.w3.org/2000/svg">
<rect width="400" height="261.785" fill="#ECEC3E"/>
<path d="M132.265 100.687C108.009 94.7368 84.6682 91.0755 63.6156 78.7185C42.5629 66.3616 0 0 0 0H400V240.5C400 240.5 380.825 240.5 365 233C349.175 225.5 319.451 164.302 288.787 153.318C258.124 142.334 232.037 128.604 200.915 119.908C169.794 111.213 156.522 106.636 132.265 100.687Z" fill="#EB4921"/>
<path d="M0 0.458008C0 0.458008 3.66133 54.4626 5.94966 79.1765C8.23799 103.891 64.5309 132.266 64.5309 132.266C64.5309 132.266 97.0252 148.742 131.808 158.81C166.59 168.879 188.101 171.625 199.085 177.575C210.069 183.524 261.736 205.093 280.5 211.5C299.264 217.907 356.939 242.423 372.5 247C388.061 251.577 400 250.5 400 250.5V261.785H0V0.458008Z" fill="#00C877"/>
</svg>
