<svg width="437" height="286" viewBox="0 0 437 286" fill="none" xmlns="http://www.w3.org/2000/svg">
<rect width="437" height="286" fill="#ECEC3E"/>
<path d="M143 154.5C121 147.5 86.5 137 70.5 130C54.5 123 14 104 8.5 85.5C3 67 0 0 0 0H437V266C437 266 402.5 260.5 389.5 256.5C376.5 252.5 336.5 242.5 323 238C309.5 233.5 235.5 202 219.5 196C203.5 190 165 161.5 143 154.5Z" fill="#EB4921"/>
<path d="M0 0.5C0 0.5 1.5 108 5 131C8.5 154 56.5 185 71.5 191C86.5 197 130 211 144 215.5C158 220 206.5 235.5 219.5 240C232.5 244.5 305.5 266 320.5 269.5C335.5 273 415.5 280.5 415.5 280.5H436.5V286H0V0.5Z" fill="#00C877"/>
</svg>
