<svg width="400" height="262" viewBox="0 0 400 262" fill="none" xmlns="http://www.w3.org/2000/svg">
<rect width="400" height="261.785" fill="#ECEC3E"/>
<path d="M32.9519 176.659C22.8833 172.082 22.8833 171.167 12.3853 157.572C1.88735 143.977 0 0 0 0H400V250.5H385.321L304.587 234.75L200 218.307L131.808 203.661C131.808 203.661 82.8375 191.762 64.5309 186.27C46.2243 180.778 43.0206 181.236 32.9519 176.659Z" fill="#EB4921"/>
<path d="M0 0.458008C0 0.458008 3.20366 185.813 7.32266 198.17C11.4416 210.527 14.1876 208.238 33.4096 214.646C52.6316 221.053 56.7505 224.257 64.5309 225.63C72.3112 227.003 111.67 230.206 132.265 232.952C152.86 235.698 200 242.106 200 242.106C200 242.106 279.634 254.463 287.872 254.005C296.11 253.547 380.32 256.751 380.32 256.751H399.542V261.785H0V0.458008Z" fill="#00C877"/>
</svg>
