<svg width="23" height="20" viewBox="0 0 23 20" fill="none" xmlns="http://www.w3.org/2000/svg">
<path d="M7.2388 8.36753C8.746 8.92123 9.60838 10.5439 9.18474 12.125C8.73608 13.7994 7.01503 14.7931 5.34064 14.3444C1.99185 13.4471 0.0651465 9.77877 1.03723 6.15092C2.00931 2.52306 5.51206 0.309514 8.86085 1.20682C9.97711 1.50592 10.6396 2.6533 10.3405 3.76957C10.0414 4.88583 8.89397 5.54827 7.77771 5.24917C7.43698 5.15787 7.13854 4.98754 6.89681 4.76318M7.2388 8.36753C7.14985 8.33485 7.05865 8.30589 6.96533 8.28089C6.54256 8.16761 6.11681 8.14628 5.70932 8.20464M7.2388 8.36753C7.71286 8.22906 8.08264 7.89738 8.31101 7.48424M8.19052 5.35976C8.67963 5.97827 8.67122 6.83259 8.31101 7.48424M15.7604 8.36744C14.2532 8.92114 13.3908 10.5438 13.8144 12.1249C14.2631 13.7993 15.9841 14.793 17.6585 14.3444C21.0073 13.447 22.934 9.77869 21.9619 6.15083C20.9899 2.52298 17.4871 0.309429 14.1383 1.20673C13.022 1.50584 12.3596 2.65322 12.6587 3.76948C12.9578 4.88574 14.1052 5.54818 15.2214 5.24908C15.5622 5.15778 15.8606 4.98745 16.1023 4.76309M15.7604 8.36744C15.8493 8.33476 15.9405 8.30581 16.0338 8.2808C16.4566 8.16752 16.8823 8.14619 17.2898 8.20455M15.7604 8.36744C15.2863 8.22898 14.9166 7.89734 14.6882 7.48424M14.8086 5.35968C14.3195 5.97822 14.3279 6.83258 14.6882 7.48424M14.6882 7.48424V7.48424C13.1501 7.48424 11.8374 8.59625 11.5845 10.1135L11.4996 10.6229M11.4996 18.9928L11.4996 10.6229M8.31101 7.48424V7.48424C9.84913 7.48424 11.1618 8.59624 11.4147 10.1134L11.4996 10.6229" stroke="#1961AB" stroke-width="1.5" stroke-linecap="round" stroke-linejoin="round"/>
</svg>
