<svg width="28" height="32" viewBox="0 0 28 32" fill="none" xmlns="http://www.w3.org/2000/svg">
<path d="M14.0025 16C9.64482 16 6.09965 12.4114 6.09965 8C6.09965 3.58857 9.64464 0 14.0025 0C18.3603 0 21.9053 3.58857 21.9053 8C21.9053 12.4114 18.3603 16 14.0025 16ZM14.0025 2.28571C10.8893 2.28571 8.35761 4.84857 8.35761 8C8.35761 11.1514 10.8893 13.7143 14.0025 13.7143C17.1157 13.7143 19.6474 11.1514 19.6474 8C19.6474 4.84857 17.1157 2.28571 14.0025 2.28571ZM25.3345 32H2.67045C2.06362 32 1.48078 31.74 1.07012 31.2857C0.658052 30.83 0.454836 30.2143 0.508449 29.5986C1.14772 22.4986 6.94777 17.1442 13.9998 17.1442C21.0519 17.1442 26.8517 22.5001 27.4912 29.5986C27.5462 30.2143 27.3416 30.83 26.9295 31.2857C26.5203 31.74 25.9374 32 25.3292 32H25.3345ZM2.76908 29.7143H25.237C24.664 23.8427 19.849 19.4286 14.0021 19.4286C8.15529 19.4286 3.34169 23.8427 2.76727 29.7143H2.76908Z" fill="black"/>
</svg>
