<svg width="400" height="286" viewBox="0 0 400 286" fill="none" xmlns="http://www.w3.org/2000/svg">
<rect width="400" height="286" fill="#ECEC3E"/>
<path d="M399.085 0.498047V209.5C399.085 209.5 244.394 214.5 217.849 214.5C191.305 214.5 169.794 214 144.165 211.5C118.536 209 98.8562 195 84.6686 182.5C69.1358 168.815 59.8227 132.5 52.5 116.5C41.516 101 28.1163 29.5167 24.2567 22L20.1377 0.498047H399.085Z" fill="#EB4921"/>
<path d="M0 0.5C0 0.5 41.1899 154.5 50.3432 178C59.4966 201.5 83.7529 221 94.2792 226C104.805 231 143.707 247 156.522 248C169.336 249 218.307 256.5 228.833 257C239.359 257.5 287.414 264.5 308.009 264.5C328.604 264.5 381.236 268 381.236 268H399.542V286H0V0.5Z" fill="#00C877"/>
</svg>
