<svg width="400" height="262" viewBox="0 0 400 262" fill="none" xmlns="http://www.w3.org/2000/svg">
<rect width="400" height="261.785" fill="#ECEC3E"/>
<path d="M41.1899 187.643C26.0869 181.236 18.8307 98.7611 17 82.2852C15.1693 65.8092 17.0003 0.458008 17.0003 0.458008H399.085V253.09H384.439C384.439 253.09 313.501 246.225 301.144 244.394C288.787 242.563 232.037 234.271 211.899 232.495C191.762 230.718 160.641 225.172 148.284 221.511C143.01 219.948 113.959 213.273 100.229 210.069C77.8038 204.836 56.2928 194.051 41.1899 187.643Z" fill="#EB4921"/>
<path d="M0 0.458008C0 0.458008 3.20434 96.1102 5.03466 118.536C6.86499 140.961 19.6796 206.865 35.2403 214.188L99.7712 236.156C110.297 237.987 140.245 245.454 144.622 245.767C157.437 246.682 188.101 253.09 198.627 253.547C209.153 254.005 268.192 256.751 288.787 256.751H380.32H399.542V261.785H0V0.458008Z" fill="#00C877"/>
</svg>
