<svg width="21" height="20" viewBox="0 0 21 20" fill="none" xmlns="http://www.w3.org/2000/svg">
<mask id="path-1-inside-1_1287_1120" fill="white">
<path d="M12.4303 6.4539C11.5394 6.4539 10.8163 7.17602 10.8163 8.06576H11.4619C11.4619 7.53385 11.8977 7.09865 12.4303 7.09865C12.9629 7.09865 13.3986 7.53385 13.3986 8.06576C13.3986 8.59768 12.9629 9.03288 12.4303 9.03288V9.67763C13.3212 9.67763 14.0442 8.95551 14.0442 8.06576C14.0442 7.17602 13.3212 6.4539 12.4303 6.4539Z"/>
<path d="M10.4935 11.6119V12.2566C10.8486 12.2566 11.1391 12.5467 11.1391 12.9014C11.1391 13.256 10.8486 13.5461 10.4935 13.5461C10.1385 13.5461 9.84797 13.256 9.84797 12.9014H9.20239C9.20239 13.6138 9.78018 14.1908 10.4935 14.1908C11.2069 14.1908 11.7847 13.6138 11.7847 12.9014C11.7847 12.1889 11.2069 11.6119 10.4935 11.6119Z"/>
<path d="M7.91123 10.3224C7.7337 10.3224 7.58844 10.1773 7.58844 10C7.58844 9.82269 7.7337 9.67763 7.91123 9.67763V9.03288C7.37863 9.03288 6.94287 9.46808 6.94287 10C6.94287 10.5319 7.37863 10.9671 7.91123 10.9671C8.44383 10.9671 8.8796 10.5319 8.8796 10H8.23402C8.23402 10.1773 8.08877 10.3224 7.91123 10.3224Z"/>
<path d="M12.5917 8.34623C12.7466 8.25596 12.7983 8.05932 12.7111 7.90458C12.6207 7.74984 12.4238 7.69826 12.2689 7.7853C12.1139 7.87556 12.0623 8.07221 12.1495 8.22695C12.2398 8.38169 12.4367 8.43327 12.5917 8.34623Z"/>
<path d="M10.6549 13.1818C10.8099 13.0916 10.8615 12.8949 10.7744 12.7402C10.684 12.5854 10.4871 12.5338 10.3322 12.6209C10.1772 12.7112 10.1256 12.9078 10.2127 13.0625C10.3031 13.2173 10.5 13.2689 10.6549 13.1818Z"/>
<path d="M19.2088 8.71051C18.7602 8.71051 18.3567 8.93617 18.1243 9.30367L16.562 9.12959C16.4877 8.62347 16.3522 8.13346 16.1553 7.65957L17.0591 7.25338C17.54 7.48872 18.1017 7.4726 18.5697 7.20503C18.9442 6.98904 19.2088 6.64088 19.3218 6.22502C19.4348 5.80916 19.3767 5.37395 19.1604 5.00322C18.715 4.23275 17.7272 3.96841 16.9558 4.41328C16.491 4.68085 16.194 5.16119 16.1585 5.69632L15.358 6.27015C15.0481 5.86718 14.6866 5.5029 14.2831 5.18698L14.9158 3.74919C15.3515 3.72985 15.7485 3.49452 15.9745 3.10767C16.1456 2.81109 16.194 2.46293 16.1036 2.12766C16.0132 1.79562 15.8002 1.51838 15.5032 1.34429C14.8867 0.989684 14.0959 1.19923 13.7408 1.81496C13.5181 2.20181 13.5116 2.66602 13.7117 3.04964L12.7789 4.31335C12.3044 4.12315 11.8105 3.9942 11.3005 3.9265L11.4006 2.94326C11.8428 2.64346 12.1139 2.15023 12.1139 1.61186C12.1139 0.722115 11.3909 0 10.5 0C9.6091 0 8.88605 0.722115 8.88605 1.61186C8.88605 2.15023 9.15397 2.64346 9.59942 2.94326L9.69948 3.9265C9.19271 3.9942 8.69884 4.12315 8.22111 4.31335L7.28825 3.04964C7.48838 2.6628 7.48515 2.20181 7.2592 1.81496C6.90413 1.19923 6.1133 0.98646 5.49677 1.34429C5.19658 1.51515 4.98354 1.79562 4.89638 2.12766C4.806 2.4597 4.85442 2.80787 5.0255 3.10767C5.24822 3.49452 5.64848 3.72985 6.08425 3.74919L6.71691 5.18698C6.31343 5.5029 5.9519 5.86718 5.64203 6.27015L4.84151 5.69632C4.806 5.16441 4.50904 4.68407 4.04422 4.41328C3.27276 3.96841 2.28502 4.23275 1.83957 5.00322C1.62331 5.37718 1.56843 5.80916 1.67818 6.22502C1.78793 6.64088 2.05584 6.98904 2.43028 7.20503C2.89509 7.4726 3.45997 7.48872 3.94093 7.25338L4.84474 7.65957C4.64784 8.13346 4.51227 8.62347 4.43802 9.12959L2.87573 9.30367C2.64332 8.93617 2.2366 8.71051 1.79116 8.71051C1.07779 8.71051 0.5 9.28756 0.5 10C0.5 10.7124 1.07779 11.2895 1.79116 11.2895C2.23983 11.2895 2.64332 11.0638 2.87573 10.6963L4.43802 10.8704C4.51227 11.3765 4.64784 11.8665 4.84474 12.3404L3.94093 12.7466C3.45997 12.5113 2.89832 12.5274 2.43028 12.795C2.05584 13.011 1.79116 13.3591 1.67818 13.775C1.5652 14.1908 1.62331 14.626 1.83957 14.9968C2.28502 15.7672 3.27276 16.0316 4.04422 15.5867C4.50904 15.3191 4.806 14.8388 4.84151 14.3037L5.64203 13.7299C5.9519 14.1328 6.31343 14.4971 6.71691 14.813L6.08425 16.2508C5.64848 16.2701 5.25145 16.5055 5.0255 16.8923C4.85442 17.1889 4.806 17.5371 4.89638 17.8723C4.98677 18.2044 5.19981 18.4816 5.49677 18.6557C6.1133 19.0103 6.90413 18.7975 7.2592 18.185C7.48192 17.7982 7.48838 17.334 7.28825 16.9504L8.22111 15.6867C8.69561 15.8769 9.18948 16.0058 9.69948 16.0735L9.59942 17.0567C9.1572 17.3565 8.88605 17.8498 8.88605 18.3881C8.88605 19.2779 9.6091 20 10.5 20C11.3909 20 12.1139 19.2779 12.1139 18.3881C12.1139 17.8498 11.846 17.3565 11.4006 17.0567L11.3005 16.0735C11.8073 16.0058 12.3012 15.8769 12.7789 15.6867L13.7117 16.9504C13.5116 17.3372 13.5148 17.7982 13.7408 18.185C14.0959 18.8008 14.8867 19.0135 15.5032 18.6557C15.8034 18.4848 16.0165 18.2044 16.1036 17.8723C16.194 17.5403 16.1456 17.1921 15.9745 16.8923C15.7518 16.5055 15.3515 16.2701 14.9158 16.2508L14.2831 14.813C14.6866 14.4971 15.0481 14.1328 15.358 13.7299L16.1585 14.3037C16.194 14.8356 16.491 15.3159 16.9558 15.5867C17.724 16.0316 18.715 15.7672 19.1604 14.9968C19.3767 14.6228 19.4316 14.1908 19.3218 13.775C19.2121 13.3591 18.9442 13.011 18.5697 12.795C18.1049 12.5274 17.54 12.5113 17.0591 12.7466L16.1553 12.3404C16.3522 11.8665 16.4877 11.3765 16.562 10.8704L18.1243 10.6963C18.3567 11.0638 18.7634 11.2895 19.2088 11.2895C19.9222 11.2895 20.5 10.7124 20.5 10C20.5 9.28756 19.9222 8.71051 19.2088 8.71051ZM19.2088 10.6447C18.9409 10.6447 18.7085 10.4836 18.6085 10.2321C18.5536 10.0967 18.418 10.0129 18.2728 10.029L16.236 10.2547C16.0842 10.2708 15.9648 10.3901 15.9519 10.5416C15.8873 11.1734 15.7163 11.7827 15.4387 12.3598C15.3999 12.4371 15.3967 12.5274 15.4258 12.608C15.4548 12.6886 15.5161 12.7563 15.5968 12.7917L16.9396 13.3978C17.0397 13.4429 17.1527 13.4333 17.2463 13.3752C17.5529 13.1818 17.9371 13.1721 18.2469 13.3495C18.7085 13.617 18.8699 14.2102 18.602 14.6712C18.4729 14.8936 18.2631 15.0548 18.0145 15.1225C17.766 15.1902 17.5045 15.1547 17.2786 15.0258C16.9687 14.8485 16.7879 14.51 16.8008 14.1489C16.8041 14.0393 16.7556 13.9362 16.6653 13.8749L15.4709 13.0174C15.3999 12.9658 15.3128 12.9465 15.2256 12.9626C15.1417 12.9787 15.0642 13.0271 15.0158 13.098C14.6575 13.6202 14.2121 14.0716 13.6924 14.4455C13.5697 14.5358 13.5245 14.697 13.5859 14.8356L14.409 16.7118C14.4671 16.844 14.6091 16.9213 14.7544 16.902C15.019 16.8601 15.2773 16.9858 15.4096 17.2147C15.4968 17.363 15.5194 17.5371 15.4742 17.7047C15.429 17.8723 15.3225 18.011 15.174 18.0948C14.8641 18.2721 14.4703 18.1657 14.2928 17.8594C14.1604 17.6306 14.183 17.3436 14.3509 17.1341C14.4413 17.0213 14.4445 16.8601 14.3573 16.7408L13.1436 15.0903C13.0533 14.9678 12.8886 14.9259 12.7498 14.9871C12.1688 15.2482 11.5523 15.4062 10.9196 15.4545C10.8325 15.461 10.7518 15.5029 10.6969 15.5674C10.642 15.6319 10.613 15.7189 10.6227 15.8059L10.7679 17.2695C10.7776 17.3759 10.8422 17.4726 10.939 17.5242C11.2618 17.6918 11.4619 18.0206 11.4619 18.3752C11.4619 18.9072 11.0261 19.3424 10.4935 19.3424C9.96094 19.3424 9.52518 18.9072 9.52518 18.3752C9.52518 18.0174 9.72531 17.6918 10.0481 17.5242C10.1449 17.4726 10.2095 17.3791 10.2192 17.2695L10.3644 15.8059C10.3741 15.7189 10.3451 15.6319 10.2902 15.5674C10.2353 15.5029 10.1546 15.461 10.0675 15.4545C9.43157 15.4062 8.81504 15.2482 8.23725 14.9871C8.19529 14.9678 8.1501 14.9581 8.10491 14.9581C8.00484 14.9581 7.90801 15.0032 7.84345 15.0903L6.62976 16.7408C6.54261 16.8569 6.54584 17.0181 6.63622 17.1341C6.80407 17.3436 6.82666 17.6273 6.69432 17.8594C6.51678 18.1657 6.11975 18.2721 5.81311 18.0948C5.66462 18.0077 5.5581 17.8691 5.51291 17.7047C5.46772 17.5403 5.49032 17.363 5.57747 17.2147C5.70981 16.9826 5.96804 16.8601 6.23273 16.902C6.37799 16.9246 6.51679 16.8472 6.57812 16.7118L7.40123 14.8356C7.46256 14.697 7.41737 14.5326 7.29471 14.4455C6.77502 14.0716 6.32957 13.6202 5.97127 13.098C5.92285 13.0271 5.84538 12.9787 5.76146 12.9626C5.67431 12.9465 5.58715 12.9691 5.51614 13.0174L4.32182 13.8749C4.23467 13.9394 4.18302 14.0426 4.18625 14.1489C4.19916 14.5132 4.0184 14.8485 3.70852 15.0258C3.4858 15.1547 3.22434 15.1902 2.97256 15.1225C2.72402 15.0548 2.5142 14.8968 2.38509 14.6712C2.11717 14.2102 2.27857 13.617 2.74015 13.3495C3.05003 13.1721 3.43092 13.1818 3.7408 13.3752C3.83118 13.4333 3.94739 13.4429 4.04745 13.3978L5.39025 12.7917C5.47095 12.7563 5.53228 12.6886 5.56133 12.608C5.59038 12.5274 5.58715 12.4371 5.54842 12.3598C5.27082 11.7859 5.09974 11.1734 5.03518 10.5416C5.01904 10.3901 4.89961 10.2708 4.75113 10.2547L2.71433 10.029C2.56908 10.0097 2.43028 10.0967 2.37863 10.2321C2.28179 10.4803 2.04616 10.6447 1.77824 10.6447C1.42318 10.6447 1.13267 10.3546 1.13267 10C1.13267 9.64539 1.42318 9.35525 1.77824 9.35525C2.04616 9.35525 2.27857 9.51644 2.37863 9.76789C2.43351 9.90329 2.56908 9.9871 2.71433 9.97099L4.75113 9.74533C4.90284 9.72921 5.02227 9.60993 5.03518 9.45841C5.09974 8.82656 5.27082 8.21728 5.54842 7.64023C5.58715 7.56286 5.59038 7.4726 5.56133 7.392C5.53228 7.31141 5.47095 7.24371 5.39025 7.20825L4.04745 6.60219C3.94739 6.55706 3.83441 6.56673 3.7408 6.62476C3.43415 6.81818 3.05003 6.82785 2.74015 6.65055C2.27857 6.38298 2.11717 5.78981 2.38509 5.32882C2.5142 5.10638 2.72402 4.9452 2.97256 4.8775C3.22111 4.8098 3.48257 4.84526 3.70852 4.97421C4.0184 5.15152 4.19916 5.49001 4.18625 5.85106C4.18302 5.96067 4.23144 6.06383 4.32182 6.12508L5.51614 6.98259C5.58715 7.03417 5.67431 7.05351 5.76146 7.0374C5.84538 7.02128 5.92285 6.97292 5.97127 6.902C6.32957 6.37975 6.77502 5.92843 7.29471 5.55448C7.41737 5.46422 7.46256 5.30303 7.40123 5.16441L6.57812 3.2882C6.52001 3.15603 6.37799 3.07866 6.23273 3.098C5.96804 3.13991 5.70981 3.01418 5.57747 2.7853C5.49032 2.63701 5.46772 2.46293 5.51291 2.29529C5.5581 2.12766 5.66462 1.98904 5.81311 1.90522C6.11975 1.72792 6.51678 1.8343 6.69432 2.14055C6.82666 2.36944 6.80407 2.65635 6.63622 2.86589C6.54584 2.97872 6.54261 3.13991 6.62976 3.25919L7.84345 4.90974C7.93383 5.03224 8.09522 5.07415 8.23725 5.0129C8.81827 4.75177 9.4348 4.59381 10.0675 4.54545C10.1546 4.53901 10.2353 4.4971 10.2902 4.43262C10.3451 4.36815 10.3741 4.28111 10.3644 4.19407L10.2192 2.7305C10.2095 2.62411 10.1449 2.5274 10.0481 2.47582C9.72531 2.30819 9.52518 1.97937 9.52518 1.62476C9.52518 1.09284 9.96094 0.65764 10.4935 0.65764C11.0261 0.65764 11.4619 1.09284 11.4619 1.62476C11.4619 1.98259 11.2618 2.30819 10.939 2.47582C10.8422 2.5274 10.7776 2.62089 10.7679 2.7305L10.6227 4.19407C10.613 4.28111 10.642 4.36815 10.6969 4.43262C10.7518 4.4971 10.8325 4.53901 10.9196 4.54545C11.5555 4.59381 12.172 4.75177 12.7498 5.0129C12.8886 5.07415 13.0533 5.03224 13.1436 4.90974L14.3573 3.25919C14.4445 3.14313 14.4413 2.98195 14.3509 2.86589C14.183 2.65635 14.1604 2.37266 14.2928 2.14055C14.4703 1.8343 14.8673 1.72792 15.174 1.90522C15.3225 1.99226 15.429 2.13088 15.4742 2.29529C15.5194 2.4597 15.4968 2.63701 15.4096 2.7853C15.2773 3.01418 15.019 3.13991 14.7544 3.098C14.6123 3.07866 14.4703 3.1528 14.409 3.2882L13.5859 5.16441C13.5245 5.30303 13.5697 5.46744 13.6924 5.55448C14.2121 5.92843 14.6575 6.37975 15.0158 6.902C15.0642 6.97292 15.1417 7.02128 15.2256 7.0374C15.3096 7.05029 15.3999 7.03095 15.4709 6.98259L16.6653 6.12508C16.7524 6.06061 16.8041 5.95745 16.8008 5.85106C16.7879 5.48678 16.9687 5.15152 17.2786 4.97421C17.5013 4.84526 17.7627 4.8098 18.0145 4.8775C18.2631 4.9452 18.4729 5.10316 18.602 5.32882C18.8699 5.78981 18.7085 6.38298 18.2469 6.65055C17.9371 6.82785 17.5562 6.81818 17.2463 6.62476C17.1559 6.56673 17.0397 6.56028 16.9396 6.60219L15.5968 7.20825C15.5161 7.24371 15.4548 7.31141 15.4258 7.392C15.3967 7.4726 15.3999 7.56286 15.4387 7.64023C15.7163 8.21406 15.8873 8.82656 15.9519 9.45841C15.968 9.60993 16.0875 9.72921 16.236 9.74533L18.2728 9.97099C18.418 9.9871 18.5568 9.90329 18.6085 9.76789C18.7053 9.51966 18.9409 9.35525 19.2088 9.35525C19.5639 9.35525 19.8544 9.64539 19.8544 10C19.8544 10.3546 19.5639 10.6447 19.2088 10.6447Z"/>
</mask>
<path d="M12.4303 6.4539C11.5394 6.4539 10.8163 7.17602 10.8163 8.06576H11.4619C11.4619 7.53385 11.8977 7.09865 12.4303 7.09865C12.9629 7.09865 13.3986 7.53385 13.3986 8.06576C13.3986 8.59768 12.9629 9.03288 12.4303 9.03288V9.67763C13.3212 9.67763 14.0442 8.95551 14.0442 8.06576C14.0442 7.17602 13.3212 6.4539 12.4303 6.4539Z" fill="black"/>
<path d="M10.4935 11.6119V12.2566C10.8486 12.2566 11.1391 12.5467 11.1391 12.9014C11.1391 13.256 10.8486 13.5461 10.4935 13.5461C10.1385 13.5461 9.84797 13.256 9.84797 12.9014H9.20239C9.20239 13.6138 9.78018 14.1908 10.4935 14.1908C11.2069 14.1908 11.7847 13.6138 11.7847 12.9014C11.7847 12.1889 11.2069 11.6119 10.4935 11.6119Z" fill="black"/>
<path d="M7.91123 10.3224C7.7337 10.3224 7.58844 10.1773 7.58844 10C7.58844 9.82269 7.7337 9.67763 7.91123 9.67763V9.03288C7.37863 9.03288 6.94287 9.46808 6.94287 10C6.94287 10.5319 7.37863 10.9671 7.91123 10.9671C8.44383 10.9671 8.8796 10.5319 8.8796 10H8.23402C8.23402 10.1773 8.08877 10.3224 7.91123 10.3224Z" fill="black"/>
<path d="M12.5917 8.34623C12.7466 8.25596 12.7983 8.05932 12.7111 7.90458C12.6207 7.74984 12.4238 7.69826 12.2689 7.7853C12.1139 7.87556 12.0623 8.07221 12.1495 8.22695C12.2398 8.38169 12.4367 8.43327 12.5917 8.34623Z" fill="black"/>
<path d="M10.6549 13.1818C10.8099 13.0916 10.8615 12.8949 10.7744 12.7402C10.684 12.5854 10.4871 12.5338 10.3322 12.6209C10.1772 12.7112 10.1256 12.9078 10.2127 13.0625C10.3031 13.2173 10.5 13.2689 10.6549 13.1818Z" fill="black"/>
<path d="M19.2088 8.71051C18.7602 8.71051 18.3567 8.93617 18.1243 9.30367L16.562 9.12959C16.4877 8.62347 16.3522 8.13346 16.1553 7.65957L17.0591 7.25338C17.54 7.48872 18.1017 7.4726 18.5697 7.20503C18.9442 6.98904 19.2088 6.64088 19.3218 6.22502C19.4348 5.80916 19.3767 5.37395 19.1604 5.00322C18.715 4.23275 17.7272 3.96841 16.9558 4.41328C16.491 4.68085 16.194 5.16119 16.1585 5.69632L15.358 6.27015C15.0481 5.86718 14.6866 5.5029 14.2831 5.18698L14.9158 3.74919C15.3515 3.72985 15.7485 3.49452 15.9745 3.10767C16.1456 2.81109 16.194 2.46293 16.1036 2.12766C16.0132 1.79562 15.8002 1.51838 15.5032 1.34429C14.8867 0.989684 14.0959 1.19923 13.7408 1.81496C13.5181 2.20181 13.5116 2.66602 13.7117 3.04964L12.7789 4.31335C12.3044 4.12315 11.8105 3.9942 11.3005 3.9265L11.4006 2.94326C11.8428 2.64346 12.1139 2.15023 12.1139 1.61186C12.1139 0.722115 11.3909 0 10.5 0C9.6091 0 8.88605 0.722115 8.88605 1.61186C8.88605 2.15023 9.15397 2.64346 9.59942 2.94326L9.69948 3.9265C9.19271 3.9942 8.69884 4.12315 8.22111 4.31335L7.28825 3.04964C7.48838 2.6628 7.48515 2.20181 7.2592 1.81496C6.90413 1.19923 6.1133 0.98646 5.49677 1.34429C5.19658 1.51515 4.98354 1.79562 4.89638 2.12766C4.806 2.4597 4.85442 2.80787 5.0255 3.10767C5.24822 3.49452 5.64848 3.72985 6.08425 3.74919L6.71691 5.18698C6.31343 5.5029 5.9519 5.86718 5.64203 6.27015L4.84151 5.69632C4.806 5.16441 4.50904 4.68407 4.04422 4.41328C3.27276 3.96841 2.28502 4.23275 1.83957 5.00322C1.62331 5.37718 1.56843 5.80916 1.67818 6.22502C1.78793 6.64088 2.05584 6.98904 2.43028 7.20503C2.89509 7.4726 3.45997 7.48872 3.94093 7.25338L4.84474 7.65957C4.64784 8.13346 4.51227 8.62347 4.43802 9.12959L2.87573 9.30367C2.64332 8.93617 2.2366 8.71051 1.79116 8.71051C1.07779 8.71051 0.5 9.28756 0.5 10C0.5 10.7124 1.07779 11.2895 1.79116 11.2895C2.23983 11.2895 2.64332 11.0638 2.87573 10.6963L4.43802 10.8704C4.51227 11.3765 4.64784 11.8665 4.84474 12.3404L3.94093 12.7466C3.45997 12.5113 2.89832 12.5274 2.43028 12.795C2.05584 13.011 1.79116 13.3591 1.67818 13.775C1.5652 14.1908 1.62331 14.626 1.83957 14.9968C2.28502 15.7672 3.27276 16.0316 4.04422 15.5867C4.50904 15.3191 4.806 14.8388 4.84151 14.3037L5.64203 13.7299C5.9519 14.1328 6.31343 14.4971 6.71691 14.813L6.08425 16.2508C5.64848 16.2701 5.25145 16.5055 5.0255 16.8923C4.85442 17.1889 4.806 17.5371 4.89638 17.8723C4.98677 18.2044 5.19981 18.4816 5.49677 18.6557C6.1133 19.0103 6.90413 18.7975 7.2592 18.185C7.48192 17.7982 7.48838 17.334 7.28825 16.9504L8.22111 15.6867C8.69561 15.8769 9.18948 16.0058 9.69948 16.0735L9.59942 17.0567C9.1572 17.3565 8.88605 17.8498 8.88605 18.3881C8.88605 19.2779 9.6091 20 10.5 20C11.3909 20 12.1139 19.2779 12.1139 18.3881C12.1139 17.8498 11.846 17.3565 11.4006 17.0567L11.3005 16.0735C11.8073 16.0058 12.3012 15.8769 12.7789 15.6867L13.7117 16.9504C13.5116 17.3372 13.5148 17.7982 13.7408 18.185C14.0959 18.8008 14.8867 19.0135 15.5032 18.6557C15.8034 18.4848 16.0165 18.2044 16.1036 17.8723C16.194 17.5403 16.1456 17.1921 15.9745 16.8923C15.7518 16.5055 15.3515 16.2701 14.9158 16.2508L14.2831 14.813C14.6866 14.4971 15.0481 14.1328 15.358 13.7299L16.1585 14.3037C16.194 14.8356 16.491 15.3159 16.9558 15.5867C17.724 16.0316 18.715 15.7672 19.1604 14.9968C19.3767 14.6228 19.4316 14.1908 19.3218 13.775C19.2121 13.3591 18.9442 13.011 18.5697 12.795C18.1049 12.5274 17.54 12.5113 17.0591 12.7466L16.1553 12.3404C16.3522 11.8665 16.4877 11.3765 16.562 10.8704L18.1243 10.6963C18.3567 11.0638 18.7634 11.2895 19.2088 11.2895C19.9222 11.2895 20.5 10.7124 20.5 10C20.5 9.28756 19.9222 8.71051 19.2088 8.71051ZM19.2088 10.6447C18.9409 10.6447 18.7085 10.4836 18.6085 10.2321C18.5536 10.0967 18.418 10.0129 18.2728 10.029L16.236 10.2547C16.0842 10.2708 15.9648 10.3901 15.9519 10.5416C15.8873 11.1734 15.7163 11.7827 15.4387 12.3598C15.3999 12.4371 15.3967 12.5274 15.4258 12.608C15.4548 12.6886 15.5161 12.7563 15.5968 12.7917L16.9396 13.3978C17.0397 13.4429 17.1527 13.4333 17.2463 13.3752C17.5529 13.1818 17.9371 13.1721 18.2469 13.3495C18.7085 13.617 18.8699 14.2102 18.602 14.6712C18.4729 14.8936 18.2631 15.0548 18.0145 15.1225C17.766 15.1902 17.5045 15.1547 17.2786 15.0258C16.9687 14.8485 16.7879 14.51 16.8008 14.1489C16.8041 14.0393 16.7556 13.9362 16.6653 13.8749L15.4709 13.0174C15.3999 12.9658 15.3128 12.9465 15.2256 12.9626C15.1417 12.9787 15.0642 13.0271 15.0158 13.098C14.6575 13.6202 14.2121 14.0716 13.6924 14.4455C13.5697 14.5358 13.5245 14.697 13.5859 14.8356L14.409 16.7118C14.4671 16.844 14.6091 16.9213 14.7544 16.902C15.019 16.8601 15.2773 16.9858 15.4096 17.2147C15.4968 17.363 15.5194 17.5371 15.4742 17.7047C15.429 17.8723 15.3225 18.011 15.174 18.0948C14.8641 18.2721 14.4703 18.1657 14.2928 17.8594C14.1604 17.6306 14.183 17.3436 14.3509 17.1341C14.4413 17.0213 14.4445 16.8601 14.3573 16.7408L13.1436 15.0903C13.0533 14.9678 12.8886 14.9259 12.7498 14.9871C12.1688 15.2482 11.5523 15.4062 10.9196 15.4545C10.8325 15.461 10.7518 15.5029 10.6969 15.5674C10.642 15.6319 10.613 15.7189 10.6227 15.8059L10.7679 17.2695C10.7776 17.3759 10.8422 17.4726 10.939 17.5242C11.2618 17.6918 11.4619 18.0206 11.4619 18.3752C11.4619 18.9072 11.0261 19.3424 10.4935 19.3424C9.96094 19.3424 9.52518 18.9072 9.52518 18.3752C9.52518 18.0174 9.72531 17.6918 10.0481 17.5242C10.1449 17.4726 10.2095 17.3791 10.2192 17.2695L10.3644 15.8059C10.3741 15.7189 10.3451 15.6319 10.2902 15.5674C10.2353 15.5029 10.1546 15.461 10.0675 15.4545C9.43157 15.4062 8.81504 15.2482 8.23725 14.9871C8.19529 14.9678 8.1501 14.9581 8.10491 14.9581C8.00484 14.9581 7.90801 15.0032 7.84345 15.0903L6.62976 16.7408C6.54261 16.8569 6.54584 17.0181 6.63622 17.1341C6.80407 17.3436 6.82666 17.6273 6.69432 17.8594C6.51678 18.1657 6.11975 18.2721 5.81311 18.0948C5.66462 18.0077 5.5581 17.8691 5.51291 17.7047C5.46772 17.5403 5.49032 17.363 5.57747 17.2147C5.70981 16.9826 5.96804 16.8601 6.23273 16.902C6.37799 16.9246 6.51679 16.8472 6.57812 16.7118L7.40123 14.8356C7.46256 14.697 7.41737 14.5326 7.29471 14.4455C6.77502 14.0716 6.32957 13.6202 5.97127 13.098C5.92285 13.0271 5.84538 12.9787 5.76146 12.9626C5.67431 12.9465 5.58715 12.9691 5.51614 13.0174L4.32182 13.8749C4.23467 13.9394 4.18302 14.0426 4.18625 14.1489C4.19916 14.5132 4.0184 14.8485 3.70852 15.0258C3.4858 15.1547 3.22434 15.1902 2.97256 15.1225C2.72402 15.0548 2.5142 14.8968 2.38509 14.6712C2.11717 14.2102 2.27857 13.617 2.74015 13.3495C3.05003 13.1721 3.43092 13.1818 3.7408 13.3752C3.83118 13.4333 3.94739 13.4429 4.04745 13.3978L5.39025 12.7917C5.47095 12.7563 5.53228 12.6886 5.56133 12.608C5.59038 12.5274 5.58715 12.4371 5.54842 12.3598C5.27082 11.7859 5.09974 11.1734 5.03518 10.5416C5.01904 10.3901 4.89961 10.2708 4.75113 10.2547L2.71433 10.029C2.56908 10.0097 2.43028 10.0967 2.37863 10.2321C2.28179 10.4803 2.04616 10.6447 1.77824 10.6447C1.42318 10.6447 1.13267 10.3546 1.13267 10C1.13267 9.64539 1.42318 9.35525 1.77824 9.35525C2.04616 9.35525 2.27857 9.51644 2.37863 9.76789C2.43351 9.90329 2.56908 9.9871 2.71433 9.97099L4.75113 9.74533C4.90284 9.72921 5.02227 9.60993 5.03518 9.45841C5.09974 8.82656 5.27082 8.21728 5.54842 7.64023C5.58715 7.56286 5.59038 7.4726 5.56133 7.392C5.53228 7.31141 5.47095 7.24371 5.39025 7.20825L4.04745 6.60219C3.94739 6.55706 3.83441 6.56673 3.7408 6.62476C3.43415 6.81818 3.05003 6.82785 2.74015 6.65055C2.27857 6.38298 2.11717 5.78981 2.38509 5.32882C2.5142 5.10638 2.72402 4.9452 2.97256 4.8775C3.22111 4.8098 3.48257 4.84526 3.70852 4.97421C4.0184 5.15152 4.19916 5.49001 4.18625 5.85106C4.18302 5.96067 4.23144 6.06383 4.32182 6.12508L5.51614 6.98259C5.58715 7.03417 5.67431 7.05351 5.76146 7.0374C5.84538 7.02128 5.92285 6.97292 5.97127 6.902C6.32957 6.37975 6.77502 5.92843 7.29471 5.55448C7.41737 5.46422 7.46256 5.30303 7.40123 5.16441L6.57812 3.2882C6.52001 3.15603 6.37799 3.07866 6.23273 3.098C5.96804 3.13991 5.70981 3.01418 5.57747 2.7853C5.49032 2.63701 5.46772 2.46293 5.51291 2.29529C5.5581 2.12766 5.66462 1.98904 5.81311 1.90522C6.11975 1.72792 6.51678 1.8343 6.69432 2.14055C6.82666 2.36944 6.80407 2.65635 6.63622 2.86589C6.54584 2.97872 6.54261 3.13991 6.62976 3.25919L7.84345 4.90974C7.93383 5.03224 8.09522 5.07415 8.23725 5.0129C8.81827 4.75177 9.4348 4.59381 10.0675 4.54545C10.1546 4.53901 10.2353 4.4971 10.2902 4.43262C10.3451 4.36815 10.3741 4.28111 10.3644 4.19407L10.2192 2.7305C10.2095 2.62411 10.1449 2.5274 10.0481 2.47582C9.72531 2.30819 9.52518 1.97937 9.52518 1.62476C9.52518 1.09284 9.96094 0.65764 10.4935 0.65764C11.0261 0.65764 11.4619 1.09284 11.4619 1.62476C11.4619 1.98259 11.2618 2.30819 10.939 2.47582C10.8422 2.5274 10.7776 2.62089 10.7679 2.7305L10.6227 4.19407C10.613 4.28111 10.642 4.36815 10.6969 4.43262C10.7518 4.4971 10.8325 4.53901 10.9196 4.54545C11.5555 4.59381 12.172 4.75177 12.7498 5.0129C12.8886 5.07415 13.0533 5.03224 13.1436 4.90974L14.3573 3.25919C14.4445 3.14313 14.4413 2.98195 14.3509 2.86589C14.183 2.65635 14.1604 2.37266 14.2928 2.14055C14.4703 1.8343 14.8673 1.72792 15.174 1.90522C15.3225 1.99226 15.429 2.13088 15.4742 2.29529C15.5194 2.4597 15.4968 2.63701 15.4096 2.7853C15.2773 3.01418 15.019 3.13991 14.7544 3.098C14.6123 3.07866 14.4703 3.1528 14.409 3.2882L13.5859 5.16441C13.5245 5.30303 13.5697 5.46744 13.6924 5.55448C14.2121 5.92843 14.6575 6.37975 15.0158 6.902C15.0642 6.97292 15.1417 7.02128 15.2256 7.0374C15.3096 7.05029 15.3999 7.03095 15.4709 6.98259L16.6653 6.12508C16.7524 6.06061 16.8041 5.95745 16.8008 5.85106C16.7879 5.48678 16.9687 5.15152 17.2786 4.97421C17.5013 4.84526 17.7627 4.8098 18.0145 4.8775C18.2631 4.9452 18.4729 5.10316 18.602 5.32882C18.8699 5.78981 18.7085 6.38298 18.2469 6.65055C17.9371 6.82785 17.5562 6.81818 17.2463 6.62476C17.1559 6.56673 17.0397 6.56028 16.9396 6.60219L15.5968 7.20825C15.5161 7.24371 15.4548 7.31141 15.4258 7.392C15.3967 7.4726 15.3999 7.56286 15.4387 7.64023C15.7163 8.21406 15.8873 8.82656 15.9519 9.45841C15.968 9.60993 16.0875 9.72921 16.236 9.74533L18.2728 9.97099C18.418 9.9871 18.5568 9.90329 18.6085 9.76789C18.7053 9.51966 18.9409 9.35525 19.2088 9.35525C19.5639 9.35525 19.8544 9.64539 19.8544 10C19.8544 10.3546 19.5639 10.6447 19.2088 10.6447Z" fill="black"/>
<path d="M12.4303 6.4539C11.5394 6.4539 10.8163 7.17602 10.8163 8.06576H11.4619C11.4619 7.53385 11.8977 7.09865 12.4303 7.09865C12.9629 7.09865 13.3986 7.53385 13.3986 8.06576C13.3986 8.59768 12.9629 9.03288 12.4303 9.03288V9.67763C13.3212 9.67763 14.0442 8.95551 14.0442 8.06576C14.0442 7.17602 13.3212 6.4539 12.4303 6.4539Z" stroke="#1961AB" stroke-width="2" mask="url(#path-1-inside-1_1287_1120)"/>
<path d="M10.4935 11.6119V12.2566C10.8486 12.2566 11.1391 12.5467 11.1391 12.9014C11.1391 13.256 10.8486 13.5461 10.4935 13.5461C10.1385 13.5461 9.84797 13.256 9.84797 12.9014H9.20239C9.20239 13.6138 9.78018 14.1908 10.4935 14.1908C11.2069 14.1908 11.7847 13.6138 11.7847 12.9014C11.7847 12.1889 11.2069 11.6119 10.4935 11.6119Z" stroke="#1961AB" stroke-width="2" mask="url(#path-1-inside-1_1287_1120)"/>
<path d="M7.91123 10.3224C7.7337 10.3224 7.58844 10.1773 7.58844 10C7.58844 9.82269 7.7337 9.67763 7.91123 9.67763V9.03288C7.37863 9.03288 6.94287 9.46808 6.94287 10C6.94287 10.5319 7.37863 10.9671 7.91123 10.9671C8.44383 10.9671 8.8796 10.5319 8.8796 10H8.23402C8.23402 10.1773 8.08877 10.3224 7.91123 10.3224Z" stroke="#1961AB" stroke-width="2" mask="url(#path-1-inside-1_1287_1120)"/>
<path d="M12.5917 8.34623C12.7466 8.25596 12.7983 8.05932 12.7111 7.90458C12.6207 7.74984 12.4238 7.69826 12.2689 7.7853C12.1139 7.87556 12.0623 8.07221 12.1495 8.22695C12.2398 8.38169 12.4367 8.43327 12.5917 8.34623Z" stroke="#1961AB" stroke-width="2" mask="url(#path-1-inside-1_1287_1120)"/>
<path d="M10.6549 13.1818C10.8099 13.0916 10.8615 12.8949 10.7744 12.7402C10.684 12.5854 10.4871 12.5338 10.3322 12.6209C10.1772 12.7112 10.1256 12.9078 10.2127 13.0625C10.3031 13.2173 10.5 13.2689 10.6549 13.1818Z" stroke="#1961AB" stroke-width="2" mask="url(#path-1-inside-1_1287_1120)"/>
<path d="M19.2088 8.71051C18.7602 8.71051 18.3567 8.93617 18.1243 9.30367L16.562 9.12959C16.4877 8.62347 16.3522 8.13346 16.1553 7.65957L17.0591 7.25338C17.54 7.48872 18.1017 7.4726 18.5697 7.20503C18.9442 6.98904 19.2088 6.64088 19.3218 6.22502C19.4348 5.80916 19.3767 5.37395 19.1604 5.00322C18.715 4.23275 17.7272 3.96841 16.9558 4.41328C16.491 4.68085 16.194 5.16119 16.1585 5.69632L15.358 6.27015C15.0481 5.86718 14.6866 5.5029 14.2831 5.18698L14.9158 3.74919C15.3515 3.72985 15.7485 3.49452 15.9745 3.10767C16.1456 2.81109 16.194 2.46293 16.1036 2.12766C16.0132 1.79562 15.8002 1.51838 15.5032 1.34429C14.8867 0.989684 14.0959 1.19923 13.7408 1.81496C13.5181 2.20181 13.5116 2.66602 13.7117 3.04964L12.7789 4.31335C12.3044 4.12315 11.8105 3.9942 11.3005 3.9265L11.4006 2.94326C11.8428 2.64346 12.1139 2.15023 12.1139 1.61186C12.1139 0.722115 11.3909 0 10.5 0C9.6091 0 8.88605 0.722115 8.88605 1.61186C8.88605 2.15023 9.15397 2.64346 9.59942 2.94326L9.69948 3.9265C9.19271 3.9942 8.69884 4.12315 8.22111 4.31335L7.28825 3.04964C7.48838 2.6628 7.48515 2.20181 7.2592 1.81496C6.90413 1.19923 6.1133 0.98646 5.49677 1.34429C5.19658 1.51515 4.98354 1.79562 4.89638 2.12766C4.806 2.4597 4.85442 2.80787 5.0255 3.10767C5.24822 3.49452 5.64848 3.72985 6.08425 3.74919L6.71691 5.18698C6.31343 5.5029 5.9519 5.86718 5.64203 6.27015L4.84151 5.69632C4.806 5.16441 4.50904 4.68407 4.04422 4.41328C3.27276 3.96841 2.28502 4.23275 1.83957 5.00322C1.62331 5.37718 1.56843 5.80916 1.67818 6.22502C1.78793 6.64088 2.05584 6.98904 2.43028 7.20503C2.89509 7.4726 3.45997 7.48872 3.94093 7.25338L4.84474 7.65957C4.64784 8.13346 4.51227 8.62347 4.43802 9.12959L2.87573 9.30367C2.64332 8.93617 2.2366 8.71051 1.79116 8.71051C1.07779 8.71051 0.5 9.28756 0.5 10C0.5 10.7124 1.07779 11.2895 1.79116 11.2895C2.23983 11.2895 2.64332 11.0638 2.87573 10.6963L4.43802 10.8704C4.51227 11.3765 4.64784 11.8665 4.84474 12.3404L3.94093 12.7466C3.45997 12.5113 2.89832 12.5274 2.43028 12.795C2.05584 13.011 1.79116 13.3591 1.67818 13.775C1.5652 14.1908 1.62331 14.626 1.83957 14.9968C2.28502 15.7672 3.27276 16.0316 4.04422 15.5867C4.50904 15.3191 4.806 14.8388 4.84151 14.3037L5.64203 13.7299C5.9519 14.1328 6.31343 14.4971 6.71691 14.813L6.08425 16.2508C5.64848 16.2701 5.25145 16.5055 5.0255 16.8923C4.85442 17.1889 4.806 17.5371 4.89638 17.8723C4.98677 18.2044 5.19981 18.4816 5.49677 18.6557C6.1133 19.0103 6.90413 18.7975 7.2592 18.185C7.48192 17.7982 7.48838 17.334 7.28825 16.9504L8.22111 15.6867C8.69561 15.8769 9.18948 16.0058 9.69948 16.0735L9.59942 17.0567C9.1572 17.3565 8.88605 17.8498 8.88605 18.3881C8.88605 19.2779 9.6091 20 10.5 20C11.3909 20 12.1139 19.2779 12.1139 18.3881C12.1139 17.8498 11.846 17.3565 11.4006 17.0567L11.3005 16.0735C11.8073 16.0058 12.3012 15.8769 12.7789 15.6867L13.7117 16.9504C13.5116 17.3372 13.5148 17.7982 13.7408 18.185C14.0959 18.8008 14.8867 19.0135 15.5032 18.6557C15.8034 18.4848 16.0165 18.2044 16.1036 17.8723C16.194 17.5403 16.1456 17.1921 15.9745 16.8923C15.7518 16.5055 15.3515 16.2701 14.9158 16.2508L14.2831 14.813C14.6866 14.4971 15.0481 14.1328 15.358 13.7299L16.1585 14.3037C16.194 14.8356 16.491 15.3159 16.9558 15.5867C17.724 16.0316 18.715 15.7672 19.1604 14.9968C19.3767 14.6228 19.4316 14.1908 19.3218 13.775C19.2121 13.3591 18.9442 13.011 18.5697 12.795C18.1049 12.5274 17.54 12.5113 17.0591 12.7466L16.1553 12.3404C16.3522 11.8665 16.4877 11.3765 16.562 10.8704L18.1243 10.6963C18.3567 11.0638 18.7634 11.2895 19.2088 11.2895C19.9222 11.2895 20.5 10.7124 20.5 10C20.5 9.28756 19.9222 8.71051 19.2088 8.71051ZM19.2088 10.6447C18.9409 10.6447 18.7085 10.4836 18.6085 10.2321C18.5536 10.0967 18.418 10.0129 18.2728 10.029L16.236 10.2547C16.0842 10.2708 15.9648 10.3901 15.9519 10.5416C15.8873 11.1734 15.7163 11.7827 15.4387 12.3598C15.3999 12.4371 15.3967 12.5274 15.4258 12.608C15.4548 12.6886 15.5161 12.7563 15.5968 12.7917L16.9396 13.3978C17.0397 13.4429 17.1527 13.4333 17.2463 13.3752C17.5529 13.1818 17.9371 13.1721 18.2469 13.3495C18.7085 13.617 18.8699 14.2102 18.602 14.6712C18.4729 14.8936 18.2631 15.0548 18.0145 15.1225C17.766 15.1902 17.5045 15.1547 17.2786 15.0258C16.9687 14.8485 16.7879 14.51 16.8008 14.1489C16.8041 14.0393 16.7556 13.9362 16.6653 13.8749L15.4709 13.0174C15.3999 12.9658 15.3128 12.9465 15.2256 12.9626C15.1417 12.9787 15.0642 13.0271 15.0158 13.098C14.6575 13.6202 14.2121 14.0716 13.6924 14.4455C13.5697 14.5358 13.5245 14.697 13.5859 14.8356L14.409 16.7118C14.4671 16.844 14.6091 16.9213 14.7544 16.902C15.019 16.8601 15.2773 16.9858 15.4096 17.2147C15.4968 17.363 15.5194 17.5371 15.4742 17.7047C15.429 17.8723 15.3225 18.011 15.174 18.0948C14.8641 18.2721 14.4703 18.1657 14.2928 17.8594C14.1604 17.6306 14.183 17.3436 14.3509 17.1341C14.4413 17.0213 14.4445 16.8601 14.3573 16.7408L13.1436 15.0903C13.0533 14.9678 12.8886 14.9259 12.7498 14.9871C12.1688 15.2482 11.5523 15.4062 10.9196 15.4545C10.8325 15.461 10.7518 15.5029 10.6969 15.5674C10.642 15.6319 10.613 15.7189 10.6227 15.8059L10.7679 17.2695C10.7776 17.3759 10.8422 17.4726 10.939 17.5242C11.2618 17.6918 11.4619 18.0206 11.4619 18.3752C11.4619 18.9072 11.0261 19.3424 10.4935 19.3424C9.96094 19.3424 9.52518 18.9072 9.52518 18.3752C9.52518 18.0174 9.72531 17.6918 10.0481 17.5242C10.1449 17.4726 10.2095 17.3791 10.2192 17.2695L10.3644 15.8059C10.3741 15.7189 10.3451 15.6319 10.2902 15.5674C10.2353 15.5029 10.1546 15.461 10.0675 15.4545C9.43157 15.4062 8.81504 15.2482 8.23725 14.9871C8.19529 14.9678 8.1501 14.9581 8.10491 14.9581C8.00484 14.9581 7.90801 15.0032 7.84345 15.0903L6.62976 16.7408C6.54261 16.8569 6.54584 17.0181 6.63622 17.1341C6.80407 17.3436 6.82666 17.6273 6.69432 17.8594C6.51678 18.1657 6.11975 18.2721 5.81311 18.0948C5.66462 18.0077 5.5581 17.8691 5.51291 17.7047C5.46772 17.5403 5.49032 17.363 5.57747 17.2147C5.70981 16.9826 5.96804 16.8601 6.23273 16.902C6.37799 16.9246 6.51679 16.8472 6.57812 16.7118L7.40123 14.8356C7.46256 14.697 7.41737 14.5326 7.29471 14.4455C6.77502 14.0716 6.32957 13.6202 5.97127 13.098C5.92285 13.0271 5.84538 12.9787 5.76146 12.9626C5.67431 12.9465 5.58715 12.9691 5.51614 13.0174L4.32182 13.8749C4.23467 13.9394 4.18302 14.0426 4.18625 14.1489C4.19916 14.5132 4.0184 14.8485 3.70852 15.0258C3.4858 15.1547 3.22434 15.1902 2.97256 15.1225C2.72402 15.0548 2.5142 14.8968 2.38509 14.6712C2.11717 14.2102 2.27857 13.617 2.74015 13.3495C3.05003 13.1721 3.43092 13.1818 3.7408 13.3752C3.83118 13.4333 3.94739 13.4429 4.04745 13.3978L5.39025 12.7917C5.47095 12.7563 5.53228 12.6886 5.56133 12.608C5.59038 12.5274 5.58715 12.4371 5.54842 12.3598C5.27082 11.7859 5.09974 11.1734 5.03518 10.5416C5.01904 10.3901 4.89961 10.2708 4.75113 10.2547L2.71433 10.029C2.56908 10.0097 2.43028 10.0967 2.37863 10.2321C2.28179 10.4803 2.04616 10.6447 1.77824 10.6447C1.42318 10.6447 1.13267 10.3546 1.13267 10C1.13267 9.64539 1.42318 9.35525 1.77824 9.35525C2.04616 9.35525 2.27857 9.51644 2.37863 9.76789C2.43351 9.90329 2.56908 9.9871 2.71433 9.97099L4.75113 9.74533C4.90284 9.72921 5.02227 9.60993 5.03518 9.45841C5.09974 8.82656 5.27082 8.21728 5.54842 7.64023C5.58715 7.56286 5.59038 7.4726 5.56133 7.392C5.53228 7.31141 5.47095 7.24371 5.39025 7.20825L4.04745 6.60219C3.94739 6.55706 3.83441 6.56673 3.7408 6.62476C3.43415 6.81818 3.05003 6.82785 2.74015 6.65055C2.27857 6.38298 2.11717 5.78981 2.38509 5.32882C2.5142 5.10638 2.72402 4.9452 2.97256 4.8775C3.22111 4.8098 3.48257 4.84526 3.70852 4.97421C4.0184 5.15152 4.19916 5.49001 4.18625 5.85106C4.18302 5.96067 4.23144 6.06383 4.32182 6.12508L5.51614 6.98259C5.58715 7.03417 5.67431 7.05351 5.76146 7.0374C5.84538 7.02128 5.92285 6.97292 5.97127 6.902C6.32957 6.37975 6.77502 5.92843 7.29471 5.55448C7.41737 5.46422 7.46256 5.30303 7.40123 5.16441L6.57812 3.2882C6.52001 3.15603 6.37799 3.07866 6.23273 3.098C5.96804 3.13991 5.70981 3.01418 5.57747 2.7853C5.49032 2.63701 5.46772 2.46293 5.51291 2.29529C5.5581 2.12766 5.66462 1.98904 5.81311 1.90522C6.11975 1.72792 6.51678 1.8343 6.69432 2.14055C6.82666 2.36944 6.80407 2.65635 6.63622 2.86589C6.54584 2.97872 6.54261 3.13991 6.62976 3.25919L7.84345 4.90974C7.93383 5.03224 8.09522 5.07415 8.23725 5.0129C8.81827 4.75177 9.4348 4.59381 10.0675 4.54545C10.1546 4.53901 10.2353 4.4971 10.2902 4.43262C10.3451 4.36815 10.3741 4.28111 10.3644 4.19407L10.2192 2.7305C10.2095 2.62411 10.1449 2.5274 10.0481 2.47582C9.72531 2.30819 9.52518 1.97937 9.52518 1.62476C9.52518 1.09284 9.96094 0.65764 10.4935 0.65764C11.0261 0.65764 11.4619 1.09284 11.4619 1.62476C11.4619 1.98259 11.2618 2.30819 10.939 2.47582C10.8422 2.5274 10.7776 2.62089 10.7679 2.7305L10.6227 4.19407C10.613 4.28111 10.642 4.36815 10.6969 4.43262C10.7518 4.4971 10.8325 4.53901 10.9196 4.54545C11.5555 4.59381 12.172 4.75177 12.7498 5.0129C12.8886 5.07415 13.0533 5.03224 13.1436 4.90974L14.3573 3.25919C14.4445 3.14313 14.4413 2.98195 14.3509 2.86589C14.183 2.65635 14.1604 2.37266 14.2928 2.14055C14.4703 1.8343 14.8673 1.72792 15.174 1.90522C15.3225 1.99226 15.429 2.13088 15.4742 2.29529C15.5194 2.4597 15.4968 2.63701 15.4096 2.7853C15.2773 3.01418 15.019 3.13991 14.7544 3.098C14.6123 3.07866 14.4703 3.1528 14.409 3.2882L13.5859 5.16441C13.5245 5.30303 13.5697 5.46744 13.6924 5.55448C14.2121 5.92843 14.6575 6.37975 15.0158 6.902C15.0642 6.97292 15.1417 7.02128 15.2256 7.0374C15.3096 7.05029 15.3999 7.03095 15.4709 6.98259L16.6653 6.12508C16.7524 6.06061 16.8041 5.95745 16.8008 5.85106C16.7879 5.48678 16.9687 5.15152 17.2786 4.97421C17.5013 4.84526 17.7627 4.8098 18.0145 4.8775C18.2631 4.9452 18.4729 5.10316 18.602 5.32882C18.8699 5.78981 18.7085 6.38298 18.2469 6.65055C17.9371 6.82785 17.5562 6.81818 17.2463 6.62476C17.1559 6.56673 17.0397 6.56028 16.9396 6.60219L15.5968 7.20825C15.5161 7.24371 15.4548 7.31141 15.4258 7.392C15.3967 7.4726 15.3999 7.56286 15.4387 7.64023C15.7163 8.21406 15.8873 8.82656 15.9519 9.45841C15.968 9.60993 16.0875 9.72921 16.236 9.74533L18.2728 9.97099C18.418 9.9871 18.5568 9.90329 18.6085 9.76789C18.7053 9.51966 18.9409 9.35525 19.2088 9.35525C19.5639 9.35525 19.8544 9.64539 19.8544 10C19.8544 10.3546 19.5639 10.6447 19.2088 10.6447Z" stroke="#1961AB" stroke-width="2" mask="url(#path-1-inside-1_1287_1120)"/>
</svg>
